<svg id="Calque_1" data-name="Calque 1" xmlns="http://www.w3.org/2000/svg" xmlns:xlink="http://www.w3.org/1999/xlink" viewBox="0 0 500.02 119.79"><defs><style>.cls-1,.cls-2,.cls-3,.cls-30,.cls-31,.cls-32,.cls-34,.cls-5{fill:none;}.cls-2{stroke:#ccc;stroke-width:0.47px;}.cls-2,.cls-3,.cls-30,.cls-31,.cls-32,.cls-34,.cls-5{stroke-miterlimit:10;}.cls-3{stroke:#abb7b7;stroke-dasharray:1.63 1.63;}.cls-3,.cls-5{stroke-width:0.22px;}.cls-4{font-size:6px;font-family:CMUTypewriter-Regular, CMU Typewriter Text;}.cls-5{stroke:#000;}.cls-6{clip-path:url(#clip-path);}.cls-7{clip-path:url(#clip-path-2);}.cls-8{clip-path:url(#clip-path-3);}.cls-9{clip-path:url(#clip-path-4);}.cls-10{clip-path:url(#clip-path-5);}.cls-11{clip-path:url(#clip-path-6);}.cls-12{clip-path:url(#clip-path-7);}.cls-13{clip-path:url(#clip-path-8);}.cls-14{clip-path:url(#clip-path-9);}.cls-15{clip-path:url(#clip-path-10);}.cls-16{clip-path:url(#clip-path-11);}.cls-17{fill:#ef4836;}.cls-18{fill:#fff;}.cls-19,.cls-20,.cls-22,.cls-35{font-size:4.9px;}.cls-19{fill:#1e824c;font-family:TimesNewRomanPSMT, Times New Roman;}.cls-20,.cls-22{fill:#2574a9;font-family:Monaco, Monaco;}.cls-20,.cls-23{letter-spacing:3.34em;}.cls-21{letter-spacing:0em;}.cls-24{letter-spacing:3.06em;}.cls-25{letter-spacing:2.74em;}.cls-26{letter-spacing:0em;}.cls-27{letter-spacing:2.74em;}.cls-28,.cls-35,.cls-38,.cls-42{fill:#1d1d1b;}.cls-29{clip-path:url(#clip-path-12);}.cls-30,.cls-31,.cls-32,.cls-34{stroke:#1d1d1b;}.cls-30{stroke-width:0.54px;}.cls-31,.cls-32{stroke-width:0.41px;}.cls-32{stroke-dasharray:3.82 2.19;}.cls-33{clip-path:url(#clip-path-13);}.cls-34{stroke-width:0.27px;}.cls-35,.cls-38,.cls-42{font-family:MyriadPro-Regular, Myriad Pro;}.cls-36{letter-spacing:0.01em;}.cls-37{letter-spacing:-0.03em;}.cls-38,.cls-42{font-size:5.99px;}.cls-38{letter-spacing:-0.01em;}.cls-39{letter-spacing:-0.01em;}.cls-40{letter-spacing:0em;}.cls-41{letter-spacing:0em;}.cls-43{letter-spacing:0em;}.cls-44{letter-spacing:0em;}.cls-45{letter-spacing:-0.01em;}.cls-46{letter-spacing:0em;}</style><clipPath id="clip-path"><rect class="cls-1" x="497.37" y="37.78" width="2.65" height="3"/></clipPath><clipPath id="clip-path-2"><rect class="cls-1" x="497.37" y="47.78" width="2.65" height="3"/></clipPath><clipPath id="clip-path-3"><rect class="cls-1" x="497.37" y="57.78" width="2.65" height="3"/></clipPath><clipPath id="clip-path-4"><rect class="cls-1" y="66.78" width="33.38" height="5"/></clipPath><clipPath id="clip-path-5"><rect class="cls-1" x="497.37" y="67.78" width="2.65" height="3"/></clipPath><clipPath id="clip-path-6"><rect class="cls-1" x="497.37" y="77.78" width="2.65" height="3"/></clipPath><clipPath id="clip-path-7"><rect class="cls-1" x="497.37" y="87.78" width="2.65" height="3"/></clipPath><clipPath id="clip-path-8"><rect class="cls-1" y="106.78" width="52.38" height="5"/></clipPath><clipPath id="clip-path-9"><rect class="cls-1" x="497.37" y="97.78" width="2.65" height="3"/></clipPath><clipPath id="clip-path-10"><rect class="cls-1" y="77.78" width="10.38" height="4"/></clipPath><clipPath id="clip-path-11"><rect class="cls-1" x="497.37" y="107.78" width="2.65" height="3"/></clipPath><clipPath id="clip-path-12"><rect class="cls-1" x="55.37" y="19.78" width="444.65" height="3"/></clipPath><clipPath id="clip-path-13"><rect class="cls-1" x="498.37" y="20.78" width="1.65" height="6"/></clipPath></defs><title>Plan de travail 1</title><path class="cls-2" d="M209.36,36.59l3.27,3.28m-3.27,0,3.27-3.28"/><path class="cls-2" d="M286.55,36.59l3.28,3.28m-3.28,0,3.28-3.28"/><line class="cls-3" x1="56.6" y1="109.48" x2="56.6" y2="32.21"/><line class="cls-3" x1="75.9" y1="109.48" x2="75.9" y2="32.21"/><line class="cls-3" x1="95.19" y1="109.48" x2="95.19" y2="32.21"/><line class="cls-3" x1="114.5" y1="109.48" x2="114.5" y2="32.21"/><line class="cls-3" x1="133.8" y1="109.48" x2="133.8" y2="32.21"/><line class="cls-3" x1="153.1" y1="109.48" x2="153.1" y2="32.21"/><line class="cls-3" x1="172.39" y1="109.48" x2="172.39" y2="32.21"/><line class="cls-3" x1="191.69" y1="109.48" x2="191.69" y2="32.21"/><line class="cls-3" x1="211" y1="109.48" x2="211" y2="32.21"/><line class="cls-3" x1="230.3" y1="109.48" x2="230.3" y2="32.21"/><line class="cls-3" x1="249.59" y1="109.48" x2="249.59" y2="32.21"/><line class="cls-3" x1="268.89" y1="109.48" x2="268.89" y2="32.21"/><line class="cls-3" x1="288.19" y1="109.48" x2="288.19" y2="32.21"/><line class="cls-3" x1="307.5" y1="109.48" x2="307.5" y2="32.21"/><line class="cls-3" x1="326.79" y1="109.48" x2="326.79" y2="32.21"/><line class="cls-3" x1="346.09" y1="109.48" x2="346.09" y2="32.21"/><line class="cls-3" x1="365.39" y1="109.48" x2="365.39" y2="32.21"/><line class="cls-3" x1="384.69" y1="109.48" x2="384.69" y2="32.21"/><line class="cls-3" x1="403.99" y1="109.48" x2="403.99" y2="32.21"/><line class="cls-3" x1="423.29" y1="109.48" x2="423.29" y2="32.21"/><line class="cls-3" x1="442.59" y1="109.48" x2="442.59" y2="32.21"/><line class="cls-3" x1="461.89" y1="109.48" x2="461.89" y2="32.21"/><line class="cls-3" x1="481.19" y1="109.48" x2="481.19" y2="32.21"/><text class="cls-4" transform="translate(0 40.89)">time-S</text><line class="cls-5" x1="56.21" y1="39.23" x2="498.96" y2="39.23"/><g class="cls-6"><polygon points="498.96 39.23 498.32 40.1 500.02 39.23 498.32 38.37 498.96 39.23"/></g><text class="cls-4" transform="translate(0 50.32)">speed-MPS</text><line class="cls-5" x1="56.21" y1="49.27" x2="498.96" y2="49.27"/><g class="cls-7"><polygon points="498.96 49.27 498.32 50.14 500.02 49.27 498.32 48.4 498.96 49.27"/></g><text class="cls-4" transform="translate(0 60.36)">speed-KT</text><line class="cls-5" x1="56.21" y1="59.3" x2="498.96" y2="59.3"/><g class="cls-8"><polygon points="498.96 59.3 498.32 60.17 500.02 59.3 498.32 58.44 498.96 59.3"/></g><g class="cls-9"><text class="cls-4" transform="translate(0 71)">distance-M</text></g><line class="cls-5" x1="56.21" y1="69.34" x2="498.96" y2="69.34"/><g class="cls-10"><polygon points="498.96 69.34 498.32 70.21 500.02 69.34 498.32 68.47 498.96 69.34"/></g><text class="cls-4" transform="translate(0 90.24)">speed-MPS-DECEL</text><line class="cls-5" x1="56.21" y1="79.38" x2="498.96" y2="79.38"/><g class="cls-11"><polygon points="498.96 79.38 498.32 80.25 500.02 79.38 498.32 78.51 498.96 79.38"/></g><text class="cls-4" transform="translate(0 100.27)">speed-KT-DECEL</text><line class="cls-5" x1="56.21" y1="89.41" x2="498.96" y2="89.41"/><g class="cls-12"><polygon points="498.96 89.41 498.32 90.28 500.02 89.41 498.32 88.54 498.96 89.41"/></g><g class="cls-13"><text class="cls-4" transform="translate(0 110.91)">distance-M-DECEL</text></g><line class="cls-5" x1="56.21" y1="99.45" x2="498.96" y2="99.45"/><g class="cls-14"><polygon points="498.96 99.45 498.32 100.32 500.02 99.45 498.32 98.58 498.96 99.45"/></g><g class="cls-15"><text class="cls-4" transform="translate(0 81.18)">RTO</text></g><line class="cls-5" x1="56.21" y1="109.48" x2="498.96" y2="109.48"/><g class="cls-16"><polygon points="498.96 109.48 498.32 110.35 500.02 109.48 498.32 108.62 498.96 109.48"/></g><rect class="cls-17" x="56.32" y="63.05" width="1.54" height="6.18"/><rect class="cls-18" x="57.86" y="63.17" width="7.01" height="6.06"/><text class="cls-19" transform="translate(59.67 67.42)">0.</text><rect class="cls-17" x="56.32" y="32.95" width="1.54" height="6.18"/><rect class="cls-18" x="57.86" y="33.06" width="7.01" height="6.07"/><text class="cls-19" transform="translate(59.67 37.32)">0.</text><rect class="cls-18" x="57.86" y="53.13" width="7.01" height="6.06"/><text class="cls-19" transform="translate(59.67 57.39)">0.</text><rect class="cls-18" x="57.86" y="43.1" width="7.01" height="6.06"/><text class="cls-19" transform="translate(59.67 47.35)">0.</text><rect class="cls-18" x="77.16" y="33.06" width="9.17" height="6.07"/><text class="cls-19" transform="translate(78.97 37.32)">2.5</text><rect class="cls-17" x="75.62" y="32.95" width="1.55" height="6.18"/><rect class="cls-18" x="77.16" y="53.13" width="13.5" height="6.06"/><text class="cls-19" transform="translate(78.97 57.39)">11.25</text><rect class="cls-18" x="77.16" y="43.1" width="13.5" height="6.06"/><text class="cls-19" transform="translate(78.97 47.35)">5.787</text><rect class="cls-18" x="77.16" y="63.17" width="15.66" height="6.06"/><text class="cls-19" transform="translate(78.97 67.42)">14.468</text><rect class="cls-18" x="96.46" y="33.06" width="7.01" height="6.07"/><text class="cls-19" transform="translate(98.27 37.32)">5.</text><rect class="cls-17" x="94.92" y="32.95" width="1.54" height="6.18"/><rect class="cls-18" x="96.46" y="53.13" width="11.34" height="6.06"/><text class="cls-19" transform="translate(98.27 57.39)">22.5</text><rect class="cls-18" x="96.46" y="43.1" width="15.66" height="6.06"/><text class="cls-19" transform="translate(98.27 47.35)">11.575</text><rect class="cls-18" x="96.46" y="63.17" width="15.66" height="6.06"/><text class="cls-19" transform="translate(98.27 67.42)">43.406</text><rect class="cls-18" x="115.76" y="33.06" width="9.17" height="6.07"/><text class="cls-19" transform="translate(117.57 37.32)">7.5</text><rect class="cls-17" x="114.22" y="32.95" width="1.54" height="6.18"/><rect class="cls-18" x="115.76" y="53.13" width="13.5" height="6.06"/><text class="cls-19" transform="translate(117.57 57.39)">33.75</text><rect class="cls-18" x="115.76" y="43.1" width="15.66" height="6.06"/><text class="cls-19" transform="translate(117.57 47.35)">17.362</text><rect class="cls-18" x="115.76" y="63.17" width="15.66" height="6.06"/><text class="cls-19" transform="translate(117.57 67.42)">86.812</text><rect class="cls-18" x="135.06" y="33.06" width="9.17" height="6.07"/><text class="cls-19" transform="translate(136.87 37.32)">10.</text><rect class="cls-17" x="133.52" y="32.95" width="1.54" height="6.18"/><rect class="cls-18" x="135.06" y="53.13" width="9.17" height="6.06"/><text class="cls-19" transform="translate(136.87 57.39)">45.</text><rect class="cls-18" x="135.06" y="43.1" width="13.5" height="6.06"/><text class="cls-19" transform="translate(136.87 47.35)">23.15</text><rect class="cls-18" x="135.06" y="63.17" width="15.66" height="6.06"/><text class="cls-19" transform="translate(136.87 67.42)">144.68</text><rect class="cls-18" x="154.36" y="33.06" width="11.34" height="6.07"/><text class="cls-19" transform="translate(156.17 37.32)">12.5</text><rect class="cls-17" x="152.82" y="32.95" width="1.55" height="6.18"/><rect class="cls-18" x="154.36" y="53.13" width="13.5" height="6.06"/><text class="cls-19" transform="translate(156.17 57.39)">56.25</text><rect class="cls-18" x="154.36" y="43.1" width="15.66" height="6.06"/><text class="cls-19" transform="translate(156.17 47.35)">28.937</text><rect class="cls-18" x="154.36" y="63.17" width="15.66" height="6.06"/><text class="cls-19" transform="translate(156.17 67.42)">217.03</text><rect class="cls-18" x="173.66" y="33.06" width="9.17" height="6.07"/><text class="cls-19" transform="translate(175.47 37.32)">15.</text><rect class="cls-17" x="172.12" y="32.95" width="1.55" height="6.18"/><rect class="cls-18" x="173.66" y="53.13" width="11.34" height="6.06"/><text class="cls-19" transform="translate(175.47 57.39)">67.5</text><rect class="cls-18" x="173.66" y="43.1" width="13.5" height="6.06"/><text class="cls-19" transform="translate(175.47 47.35)">34.72</text><rect class="cls-18" x="173.66" y="63.17" width="15.66" height="6.06"/><text class="cls-19" transform="translate(175.47 67.42)">303.84</text><rect class="cls-18" x="192.96" y="33.06" width="11.34" height="6.07"/><text class="cls-19" transform="translate(194.77 37.32)">17.5</text><rect class="cls-17" x="191.42" y="32.95" width="1.54" height="6.18"/><rect class="cls-18" x="192.96" y="53.13" width="13.5" height="6.06"/><text class="cls-19" transform="translate(194.77 57.39)">78.75</text><rect class="cls-18" x="192.96" y="43.1" width="15.66" height="6.06"/><text class="cls-19" transform="translate(194.77 47.35)">40.512</text><rect class="cls-18" x="192.96" y="63.17" width="15.66" height="6.06"/><text class="cls-19" transform="translate(194.77 67.42)">405.12</text><rect class="cls-18" x="212.26" y="33.06" width="9.17" height="6.07"/><text class="cls-19" transform="translate(214.07 37.32)">20.</text><rect class="cls-17" x="210.72" y="73.14" width="1.54" height="6.18"/><rect class="cls-18" x="212.26" y="53.13" width="9.17" height="6.06"/><text class="cls-19" transform="translate(214.07 57.39)">90.</text><rect class="cls-18" x="212.26" y="43.1" width="11.34" height="6.06"/><text class="cls-19" transform="translate(214.07 47.35)">46.3</text><rect class="cls-18" x="212.26" y="63.17" width="15.66" height="6.06"/><text class="cls-19" transform="translate(214.07 67.42)">520.87</text><rect class="cls-17" x="230.02" y="102.97" width="1.55" height="6.18"/><rect class="cls-17" x="230.02" y="92.93" width="1.55" height="6.18"/><rect class="cls-18" x="231.56" y="33.06" width="9.17" height="6.07"/><text class="cls-19" transform="translate(233.37 37.32)">20.</text><rect class="cls-17" x="230.02" y="32.95" width="1.55" height="6.18"/><rect class="cls-18" x="231.56" y="53.13" width="9.17" height="6.06"/><text class="cls-19" transform="translate(233.37 57.39)">90.</text><rect class="cls-18" x="231.56" y="43.1" width="11.34" height="6.06"/><text class="cls-19" transform="translate(233.37 47.35)">46.3</text><rect class="cls-18" x="231.56" y="93.04" width="9.17" height="6.07"/><text class="cls-19" transform="translate(233.37 97.3)">90.</text><rect class="cls-18" x="231.56" y="83.01" width="11.34" height="6.07"/><text class="cls-19" transform="translate(233.37 87.26)">46.3</text><rect class="cls-18" x="231.56" y="63.17" width="15.66" height="6.06"/><text class="cls-19" transform="translate(233.37 67.42)">520.87</text><rect class="cls-18" x="231.56" y="103.08" width="15.66" height="6.07"/><text class="cls-19" transform="translate(233.37 107.33)">520.87</text><rect class="cls-18" x="250.86" y="33.06" width="11.34" height="6.07"/><text class="cls-19" transform="translate(252.67 37.32)">22.5</text><rect class="cls-17" x="249.32" y="32.95" width="1.54" height="6.18"/><rect class="cls-18" x="250.86" y="93.04" width="11.34" height="6.07"/><text class="cls-19" transform="translate(252.67 97.3)">82.5</text><rect class="cls-18" x="250.86" y="83.01" width="15.66" height="6.07"/><text class="cls-19" transform="translate(252.67 87.26)">42.441</text><rect class="cls-18" x="250.86" y="103.08" width="15.66" height="6.07"/><text class="cls-19" transform="translate(252.67 107.33)">626.97</text><rect class="cls-18" x="270.16" y="33.06" width="9.17" height="6.07"/><text class="cls-19" transform="translate(271.97 37.32)">25.</text><rect class="cls-17" x="268.62" y="32.95" width="1.54" height="6.18"/><rect class="cls-18" x="270.16" y="93.04" width="9.17" height="6.07"/><text class="cls-19" transform="translate(271.97 97.3)">75.</text><rect class="cls-18" x="270.16" y="83.01" width="15.66" height="6.07"/><text class="cls-19" transform="translate(271.97 87.26)">38.583</text><rect class="cls-18" x="270.16" y="103.08" width="15.66" height="6.07"/><text class="cls-19" transform="translate(271.97 107.33)">723.43</text><rect class="cls-18" x="289.46" y="93.04" width="15.66" height="6.07"/><text class="cls-19" transform="translate(291.27 97.3)">71.333</text><rect class="cls-18" x="289.46" y="83.01" width="15.66" height="6.07"/><text class="cls-19" transform="translate(291.27 87.26)">36.697</text><rect class="cls-18" x="289.46" y="33.06" width="15.66" height="6.07"/><text class="cls-19" transform="translate(291.27 37.32)">26.222</text><rect class="cls-18" x="289.46" y="103.08" width="15.66" height="6.07"/><text class="cls-19" transform="translate(291.27 107.33)">768.28</text><rect class="cls-18" x="308.76" y="33.06" width="11.34" height="6.07"/><text class="cls-19" transform="translate(310.57 37.32)">27.5</text><rect class="cls-17" x="307.22" y="32.95" width="1.54" height="6.18"/><rect class="cls-18" x="308.76" y="93.04" width="11.34" height="6.07"/><text class="cls-19" transform="translate(310.57 97.3)">67.5</text><rect class="cls-18" x="308.76" y="83.01" width="15.66" height="6.07"/><text class="cls-19" transform="translate(310.57 87.26)">34.725</text><rect class="cls-18" x="308.76" y="103.08" width="15.66" height="6.07"/><text class="cls-19" transform="translate(310.57 107.33)">812.66</text><rect class="cls-18" x="328.06" y="33.06" width="9.18" height="6.07"/><text class="cls-19" transform="translate(329.86 37.32)">30.</text><rect class="cls-17" x="326.52" y="32.95" width="1.54" height="6.18"/><rect class="cls-18" x="328.06" y="93.04" width="9.18" height="6.07"/><text class="cls-19" transform="translate(329.86 97.3)">60.</text><rect class="cls-18" x="328.06" y="83.01" width="15.66" height="6.07"/><text class="cls-19" transform="translate(329.86 87.26)">30.866</text><rect class="cls-18" x="328.06" y="103.08" width="15.66" height="6.07"/><text class="cls-19" transform="translate(329.86 107.33)">889.82</text><rect class="cls-18" x="347.36" y="33.06" width="11.34" height="6.07"/><text class="cls-19" transform="translate(349.16 37.32)">32.5</text><rect class="cls-17" x="345.82" y="32.95" width="1.54" height="6.18"/><rect class="cls-18" x="347.36" y="93.04" width="11.34" height="6.07"/><text class="cls-19" transform="translate(349.16 97.3)">52.5</text><rect class="cls-18" x="347.36" y="83.01" width="15.66" height="6.07"/><text class="cls-19" transform="translate(349.16 87.26)">27.008</text><rect class="cls-18" x="347.36" y="103.08" width="15.66" height="6.07"/><text class="cls-19" transform="translate(349.16 107.33)">957.34</text><rect class="cls-18" x="366.66" y="33.06" width="9.17" height="6.07"/><text class="cls-19" transform="translate(368.46 37.32)">35.</text><rect class="cls-17" x="365.12" y="32.95" width="1.54" height="6.18"/><rect class="cls-18" x="366.66" y="93.04" width="9.17" height="6.07"/><text class="cls-19" transform="translate(368.46 97.3)">45.</text><rect class="cls-18" x="366.66" y="83.01" width="13.5" height="6.07"/><text class="cls-19" transform="translate(368.46 87.26)">23.15</text><rect class="cls-18" x="366.66" y="103.08" width="15.66" height="6.07"/><text class="cls-19" transform="translate(368.46 107.33)">1015.2</text><rect class="cls-18" x="385.96" y="33.06" width="11.34" height="6.07"/><text class="cls-19" transform="translate(387.76 37.32)">37.5</text><rect class="cls-17" x="384.42" y="32.95" width="1.54" height="6.18"/><rect class="cls-18" x="385.96" y="93.04" width="11.34" height="6.07"/><text class="cls-19" transform="translate(387.76 97.3)">37.5</text><rect class="cls-18" x="385.96" y="83.01" width="15.66" height="6.07"/><text class="cls-19" transform="translate(387.76 87.26)">19.291</text><rect class="cls-18" x="385.96" y="103.08" width="15.66" height="6.07"/><text class="cls-19" transform="translate(387.76 107.33)">1063.4</text><rect class="cls-18" x="405.26" y="33.06" width="9.17" height="6.07"/><text class="cls-19" transform="translate(407.06 37.32)">40.</text><rect class="cls-17" x="403.71" y="32.95" width="1.55" height="6.18"/><rect class="cls-18" x="405.26" y="93.04" width="9.17" height="6.07"/><text class="cls-19" transform="translate(407.06 97.3)">30.</text><rect class="cls-18" x="405.26" y="83.01" width="15.66" height="6.07"/><text class="cls-19" transform="translate(407.06 87.26)">15.433</text><rect class="cls-18" x="405.26" y="103.08" width="15.66" height="6.07"/><text class="cls-19" transform="translate(407.06 107.33)">1102.0</text><rect class="cls-18" x="424.56" y="33.06" width="11.34" height="6.07"/><text class="cls-19" transform="translate(426.36 37.32)">42.5</text><rect class="cls-17" x="423.02" y="32.95" width="1.54" height="6.18"/><rect class="cls-18" x="424.56" y="93.04" width="11.34" height="6.07"/><text class="cls-19" transform="translate(426.36 97.3)">22.5</text><rect class="cls-18" x="424.56" y="83.01" width="15.66" height="6.07"/><text class="cls-19" transform="translate(426.36 87.26)">11.575</text><rect class="cls-18" x="424.56" y="103.08" width="15.66" height="6.07"/><text class="cls-19" transform="translate(426.36 107.33)">1130.9</text><rect class="cls-18" x="443.86" y="33.06" width="9.17" height="6.07"/><text class="cls-19" transform="translate(445.66 37.32)">45.</text><rect class="cls-17" x="442.32" y="32.95" width="1.54" height="6.18"/><rect class="cls-18" x="443.86" y="93.04" width="9.17" height="6.07"/><text class="cls-19" transform="translate(445.66 97.3)">15.</text><rect class="cls-18" x="443.86" y="83.01" width="13.5" height="6.07"/><text class="cls-19" transform="translate(445.66 87.26)">7.716</text><rect class="cls-18" x="443.86" y="103.08" width="15.66" height="6.07"/><text class="cls-19" transform="translate(445.66 107.33)">1150.2</text><rect class="cls-18" x="463.16" y="33.06" width="11.34" height="6.07"/><text class="cls-19" transform="translate(464.96 37.32)">47.5</text><rect class="cls-17" x="461.62" y="32.95" width="1.54" height="6.18"/><rect class="cls-18" x="463.16" y="93.04" width="9.17" height="6.07"/><text class="cls-19" transform="translate(464.96 97.3)">7.5</text><rect class="cls-18" x="463.16" y="83.01" width="13.5" height="6.07"/><text class="cls-19" transform="translate(464.96 87.26)">3.858</text><rect class="cls-18" x="463.16" y="103.08" width="15.66" height="6.07"/><text class="cls-19" transform="translate(464.96 107.33)">1159.9</text><rect class="cls-18" x="482.46" y="33.06" width="9.17" height="6.07"/><text class="cls-19" transform="translate(484.26 37.32)">50.</text><rect class="cls-17" x="480.91" y="32.95" width="1.55" height="6.18"/><rect class="cls-18" x="482.46" y="93.04" width="7.01" height="6.07"/><text class="cls-19" transform="translate(484.26 97.3)">0.</text><rect class="cls-18" x="482.46" y="83.01" width="7.01" height="6.07"/><text class="cls-19" transform="translate(484.26 87.26)">0.</text><rect class="cls-18" x="482.46" y="103.08" width="15.66" height="6.07"/><text class="cls-19" transform="translate(484.26 107.33)">1159.9</text><text class="cls-20" transform="translate(55.24 119.19)">12<tspan class="cls-21" x="38.59" y="0">3</tspan></text><text class="cls-20" transform="translate(113.14 119.19)">45<tspan class="cls-21" x="38.59" y="0">6</tspan></text><text class="cls-22" transform="translate(171.04 119.19)"><tspan class="cls-23">78</tspan><tspan class="cls-24" x="38.59" y="0">9</tspan><tspan x="56.53" y="0">10</tspan></text><text class="cls-22" transform="translate(246.88 119.19)">1<tspan class="cls-25" x="2.94" y="0">1</tspan><tspan class="cls-26" x="19.3" y="0">1</tspan><tspan class="cls-25" x="22.24" y="0">2</tspan><tspan x="38.59" y="0">1</tspan><tspan class="cls-27" x="41.53" y="0">3</tspan><tspan x="57.89" y="0">14</tspan></text><text class="cls-22" transform="translate(324.07 119.19)">1<tspan class="cls-27" x="2.94" y="0">5</tspan><tspan x="19.3" y="0">1</tspan><tspan class="cls-25" x="22.24" y="0">6</tspan><tspan class="cls-26" x="38.59" y="0">1</tspan><tspan class="cls-25" x="41.53" y="0">7</tspan><tspan x="57.89" y="0">18</tspan></text><text class="cls-22" transform="translate(401.27 119.19)">1<tspan class="cls-27" x="2.94" y="0">9</tspan><tspan x="19.3" y="0">2</tspan><tspan class="cls-25" x="22.24" y="0">0</tspan><tspan class="cls-26" x="38.59" y="0">2</tspan><tspan class="cls-25" x="41.53" y="0">1</tspan><tspan x="57.89" y="0">22</tspan></text><text class="cls-22" transform="translate(478.47 119.19)">23</text><rect class="cls-28" x="56.3" y="20.49" width="442.87" height="1.06"/><g class="cls-29"><rect class="cls-30" x="56.3" y="20.49" width="442.87" height="1.06"/></g><line class="cls-30" x1="63.11" y1="19.48" x2="63.11" y2="19.89"/><line class="cls-30" x1="65.66" y1="19.48" x2="65.66" y2="19.89"/><polyline class="cls-28" points="53.81 18.07 54.84 18.07 53.46 15.07 54.38 15.07 57.65 17.81 70.91 17.81 71.39 17.9 72.24 18.25 72.41 18.54 72.41 18.71 72.16 19.18 71.81 19.42 71.3 19.48 71.39 19.48 58.21 19.35 53.93 18.07"/><polyline class="cls-30" points="53.81 18.07 54.84 18.07 53.46 15.07 54.38 15.07 57.65 17.81 70.91 17.81 71.39 17.9 72.24 18.25 72.41 18.54 72.41 18.71 72.16 19.18 71.81 19.42 71.3 19.48 71.39 19.48 58.21 19.35 53.93 18.07"/><line class="cls-30" x1="70.66" y1="19.48" x2="70.66" y2="19.89"/><line class="cls-31" x1="72.92" y1="18.61" x2="74.83" y2="18.61"/><line class="cls-32" x1="77.01" y1="18.61" x2="472.54" y2="18.61"/><line class="cls-31" x1="473.63" y1="18.61" x2="475.54" y2="18.61"/><line class="cls-30" x1="56.3" y1="21.55" x2="56.3" y2="26"/><g class="cls-33"><line class="cls-30" x1="499.17" y1="21.55" x2="499.17" y2="26"/></g><line class="cls-34" x1="56.3" y1="5.44" x2="56.3" y2="8.89"/><polygon class="cls-28" points="56.3 9.89 55.73 8.48 56.3 8.82 56.88 8.48 56.3 9.89"/><text class="cls-35" transform="translate(55.01 4.5)">0</text><polyline class="cls-28" points="471.69 17.93 472.72 17.93 471.35 14.92 472.27 14.92 475.54 17.66 488.79 17.66 489.28 17.75 490.13 18.1 490.3 18.39 490.3 18.57 490.04 19.04 489.7 19.27 489.19 19.33 489.28 19.33 476.1 19.2 471.82 17.93"/><polyline class="cls-30" points="471.69 17.93 472.72 17.93 471.35 14.92 472.27 14.92 475.54 17.66 488.79 17.66 489.28 17.75 490.13 18.1 490.3 18.39 490.3 18.57 490.04 19.04 489.7 19.27 489.19 19.33 489.28 19.33 476.1 19.2 471.82 17.93"/><line class="cls-34" x1="210.77" y1="5.44" x2="210.77" y2="8.89"/><polygon class="cls-28" points="210.77 9.89 210.19 8.48 210.77 8.82 211.34 8.48 210.77 9.89"/><text class="cls-35" transform="translate(206.96 4.5)"><tspan class="cls-36">R</tspan><tspan class="cls-37" x="2.68" y="0">T</tspan><tspan x="4.99" y="0">O</tspan></text><line class="cls-30" x1="480.76" y1="19.53" x2="480.76" y2="19.94"/><line class="cls-30" x1="483.31" y1="19.53" x2="483.31" y2="19.94"/><line class="cls-30" x1="488.3" y1="19.53" x2="488.3" y2="19.94"/><line class="cls-34" x1="56.94" y1="11.12" x2="211" y2="11.12"/><polygon class="cls-28" points="55.92 11.8 57.06 11.12 55.92 10.44 55.92 11.8"/><polygon class="cls-28" points="212.01 11.8 210.87 11.12 212.01 10.44 212.01 11.8"/><line class="cls-34" x1="230.02" y1="11.12" x2="480.91" y2="11.12"/><polygon class="cls-28" points="229 11.8 230.14 11.12 229 10.44 229 11.8"/><polygon class="cls-28" points="481.93 11.8 480.79 11.12 481.93 10.44 481.93 11.8"/><text class="cls-38" transform="translate(118.66 7.17)">A<tspan class="cls-39" x="3.59" y="0">cc</tspan><tspan class="cls-40" x="8.89" y="0">ele</tspan><tspan class="cls-41" x="16.31" y="0">ra</tspan><tspan class="cls-40" x="21.11" y="0">tion</tspan></text><text class="cls-42" transform="translate(350.53 7.17)"><tspan class="cls-43">D</tspan><tspan class="cls-44" x="4.01" y="0">e</tspan><tspan class="cls-45" x="7.02" y="0">c</tspan><tspan x="9.67" y="0">ele</tspan><tspan class="cls-46" x="17.09" y="0">ra</tspan><tspan class="cls-44" x="21.89" y="0">tion</tspan></text></svg>