<svg id="Calque_1" data-name="Calque 1" xmlns="http://www.w3.org/2000/svg" xmlns:xlink="http://www.w3.org/1999/xlink" viewBox="0 0 607.24 178"><defs><style>.cls-1,.cls-10,.cls-3,.cls-6,.cls-7{fill:none;}.cls-2,.cls-4{fill:#fff;}.cls-2,.cls-8,.cls-9{fill-rule:evenodd;}.cls-10,.cls-3,.cls-6,.cls-7{stroke:#000;stroke-linecap:round;stroke-linejoin:round;}.cls-3{stroke-width:0.78px;}.cls-5{clip-path:url(#clip-path);}.cls-6{stroke-width:0.47px;}.cls-7{stroke-width:0.2px;}.cls-8{fill:#b2b2b2;}.cls-10{stroke-width:0.35px;}</style><clipPath id="clip-path"><rect class="cls-1" y="69.08" width="60.05" height="95.36"/></clipPath></defs><title>Plan de travail 1</title><polyline class="cls-2" points="63.5 137.48 116.95 137.48 116.95 149.44 64.72 149.44 64.72 144.25 63.14 144.25 63.14 118.63 63.5 137.48"/><polyline class="cls-3" points="63.5 137.48 116.95 137.48 116.95 149.44 64.72 149.44 64.72 144.25 63.14 144.25 63.14 118.63"/><rect class="cls-4" x="168.84" y="137.71" width="52.23" height="11.96"/><rect class="cls-3" x="168.84" y="137.71" width="52.23" height="11.96"/><rect class="cls-4" x="387.45" y="137.71" width="52.29" height="11.96"/><rect class="cls-3" x="387.45" y="137.71" width="52.29" height="11.96"/><polyline class="cls-2" points="544.97 118.86 544.97 144.48 544.91 144.48 544.79 144.42 544.32 144.42 544.09 144.48 543.63 144.48 543.63 149.67 491.39 149.67 491.39 137.71 544.79 137.71 544.97 118.86"/><polyline class="cls-3" points="544.97 118.86 544.97 144.48 544.91 144.48 544.79 144.42 544.32 144.42 544.09 144.48 543.63 144.48 543.63 149.67 491.39 149.67 491.39 137.71 544.79 137.71"/><rect class="cls-4" x="441.55" y="137.71" width="48.03" height="11.96"/><rect x="489.18" y="148.1" width="0.82" height="1.57"/><rect x="489.18" y="144.89" width="0.82" height="1.63"/><rect x="489.18" y="141.74" width="0.82" height="1.58"/><rect x="489.18" y="138.47" width="0.82" height="1.64"/><rect x="487.13" y="137.3" width="1.63" height="0.82"/><rect x="483.98" y="137.3" width="1.57" height="0.82"/><rect x="480.77" y="137.3" width="1.58" height="0.82"/><rect x="477.56" y="137.3" width="1.63" height="0.82"/><rect x="474.35" y="137.3" width="1.57" height="0.82"/><rect x="471.14" y="137.3" width="1.64" height="0.82"/><rect x="467.99" y="137.3" width="1.52" height="0.82"/><rect x="464.72" y="137.3" width="1.63" height="0.82"/><rect x="461.57" y="137.3" width="1.57" height="0.82"/><rect x="458.3" y="137.3" width="1.64" height="0.82"/><rect x="455.15" y="137.3" width="1.57" height="0.82"/><rect x="451.94" y="137.3" width="1.57" height="0.82"/><rect x="448.73" y="137.3" width="1.63" height="0.82"/><rect x="445.52" y="137.3" width="1.58" height="0.82"/><rect x="442.31" y="137.3" width="1.63" height="0.82"/><rect x="441.09" y="138.47" width="0.82" height="1.64"/><rect x="441.09" y="141.74" width="0.82" height="1.58"/><rect x="441.09" y="144.89" width="0.82" height="1.63"/><rect x="441.09" y="148.1" width="0.82" height="1.57"/><rect x="443.13" y="149.32" width="1.57" height="0.82"/><rect x="446.34" y="149.32" width="1.57" height="0.82"/><rect x="449.49" y="149.32" width="1.64" height="0.82"/><rect x="452.76" y="149.32" width="1.57" height="0.82"/><rect x="455.91" y="149.32" width="1.63" height="0.82"/><rect x="459.12" y="149.32" width="1.64" height="0.82"/><rect x="462.33" y="149.32" width="1.64" height="0.82"/><rect x="465.54" y="149.32" width="1.57" height="0.82"/><rect x="468.75" y="149.32" width="1.57" height="0.82"/><rect x="471.96" y="149.32" width="1.58" height="0.82"/><rect x="475.17" y="149.32" width="1.57" height="0.82"/><rect x="478.32" y="149.32" width="1.63" height="0.82"/><rect x="481.59" y="149.32" width="1.58" height="0.82"/><rect x="484.74" y="149.32" width="1.64" height="0.82"/><rect x="487.95" y="149.32" width="1.63" height="0.82"/><rect class="cls-4" x="106.33" y="60.38" width="59.06" height="58.54"/><rect class="cls-3" x="106.33" y="60.38" width="59.06" height="58.54"/><rect class="cls-4" x="167.61" y="60.38" width="59" height="58.54"/><rect class="cls-3" x="167.61" y="60.38" width="59" height="58.54"/><polyline class="cls-2" points="156.75 114.54 157.16 114.54 157.57 114.48 157.98 114.36 158.33 114.25 158.68 114.07 159.56 113.37 159.85 113.08 160.08 112.79 160.43 112.09 160.6 111.68 160.66 111.33 160.72 110.92 160.72 68.38 160.66 67.97 160.6 67.56 160.08 66.51 159.85 66.22 159.56 65.93 158.97 65.46 158.68 65.28 158.33 65.05 157.98 64.94 157.57 64.82 157.16 64.76 114.56 64.76 114.15 64.82 113.45 65.05 113.1 65.28 112.75 65.46 112.46 65.69 112.11 65.93 111.64 66.51 111.29 67.21 111.18 67.56 111.06 67.97 111 68.38 111 110.92 111.06 111.33 111.18 111.68 111.29 112.09 111.64 112.79 112.11 113.37 112.46 113.61 112.75 113.84 113.1 114.07 113.45 114.25 114.15 114.48 114.56 114.54 156.75 114.54"/><polyline class="cls-3" points="156.75 114.54 157.16 114.54 157.57 114.48 157.98 114.36 158.33 114.25 158.68 114.07 159.56 113.37 159.85 113.08 160.08 112.79 160.43 112.09 160.6 111.68 160.66 111.33 160.72 110.92 160.72 68.38 160.66 67.97 160.6 67.56 160.08 66.51 159.85 66.22 159.56 65.93 158.97 65.46 158.68 65.28 158.33 65.05 157.98 64.94 157.57 64.82 157.16 64.76 114.56 64.76 114.15 64.82 113.45 65.05 113.1 65.28 112.75 65.46 112.46 65.69 112.11 65.93 111.64 66.51 111.29 67.21 111.18 67.56 111.06 67.97 111 68.38 111 110.92 111.06 111.33 111.18 111.68 111.29 112.09 111.64 112.79 112.11 113.37 112.46 113.61 112.75 113.84 113.1 114.07 113.45 114.25 114.15 114.48 114.56 114.54 156.75 114.54"/><polyline class="cls-2" points="218.03 114.54 218.38 114.54 218.85 114.48 219.2 114.36 219.61 114.25 219.96 114.07 220.83 113.37 221.13 113.08 221.36 112.79 221.71 112.09 221.88 111.68 221.94 111.33 222 110.92 222 68.38 221.94 67.97 221.88 67.56 221.36 66.51 221.13 66.22 220.83 65.93 220.25 65.46 219.96 65.28 219.61 65.05 219.2 64.94 218.85 64.82 218.38 64.76 175.84 64.76 175.43 64.82 174.73 65.05 174.38 65.28 174.03 65.46 173.68 65.69 173.39 65.93 172.92 66.51 172.57 67.21 172.45 67.56 172.34 67.97 172.22 68.79 172.22 110.51 172.28 110.92 172.34 111.33 172.45 111.68 172.57 112.09 172.92 112.79 173.39 113.37 173.68 113.61 174.38 114.07 174.73 114.25 175.43 114.48 175.84 114.54 218.03 114.54"/><polyline class="cls-3" points="218.03 114.54 218.38 114.54 218.85 114.48 219.2 114.36 219.61 114.25 219.96 114.07 220.83 113.37 221.13 113.08 221.36 112.79 221.71 112.09 221.88 111.68 221.94 111.33 222 110.92 222 68.38 221.94 67.97 221.88 67.56 221.36 66.51 221.13 66.22 220.83 65.93 220.25 65.46 219.96 65.28 219.61 65.05 219.2 64.94 218.85 64.82 218.38 64.76 175.84 64.76 175.43 64.82 174.73 65.05 174.38 65.28 174.03 65.46 173.68 65.69 173.39 65.93 172.92 66.51 172.57 67.21 172.45 67.56 172.34 67.97 172.22 68.79 172.22 110.51 172.28 110.92 172.34 111.33 172.45 111.68 172.57 112.09 172.92 112.79 173.39 113.37 173.68 113.61 174.38 114.07 174.73 114.25 175.43 114.48 175.84 114.54 218.03 114.54"/><polyline class="cls-2" points="222.59 118.92 222.59 175.88 278.43 175.88 278.43 58.22 226.61 58.22 226.61 118.92 222.59 118.92"/><polyline class="cls-3" points="222.59 118.92 222.59 175.88 278.43 175.88 278.43 58.22 226.61 58.22 226.61 118.92 222.59 118.92"/><rect class="cls-4" x="278.43" y="117.28" width="59" height="58.59"/><rect class="cls-3" x="278.43" y="117.28" width="59" height="58.59"/><polyline class="cls-2" points="328.8 171.44 329.27 171.44 329.62 171.38 330.03 171.27 330.38 171.15 331.08 170.8 331.37 170.57 331.66 170.28 332.13 169.69 332.36 169.34 332.54 168.99 332.65 168.64 332.77 168.29 332.83 167.82 332.89 167.41 332.89 125.69 332.77 124.87 332.65 124.46 332.54 124.11 332.36 123.76 332.13 123.41 331.66 122.83 331.08 122.36 330.73 122.19 330.38 121.95 330.03 121.84 329.62 121.72 329.27 121.72 328.8 121.66 287.07 121.66 286.66 121.72 286.25 121.72 285.91 121.84 285.5 121.95 285.15 122.19 284.86 122.36 284.5 122.59 283.98 123.12 283.75 123.41 283.51 123.76 283.39 124.11 283.22 124.46 283.16 124.87 283.05 125.28 283.05 167.82 283.16 168.29 283.22 168.64 283.39 168.99 283.51 169.34 283.75 169.69 283.98 169.98 284.27 170.28 284.5 170.57 284.86 170.8 285.15 170.97 285.5 171.15 285.91 171.27 286.25 171.38 286.66 171.44 328.8 171.44"/><polyline class="cls-3" points="328.8 171.44 329.27 171.44 329.62 171.38 330.03 171.27 330.38 171.15 331.08 170.8 331.37 170.57 331.66 170.28 332.13 169.69 332.36 169.34 332.54 168.99 332.65 168.64 332.77 168.29 332.83 167.82 332.89 167.41 332.89 125.69 332.77 124.87 332.65 124.46 332.54 124.11 332.36 123.76 332.13 123.41 331.66 122.83 331.08 122.36 330.73 122.19 330.38 121.95 330.03 121.84 329.62 121.72 329.27 121.72 328.8 121.66 287.07 121.66 286.66 121.72 286.25 121.72 285.91 121.84 285.5 121.95 285.15 122.19 284.86 122.36 284.5 122.59 283.98 123.12 283.75 123.41 283.51 123.76 283.39 124.11 283.22 124.46 283.16 124.87 283.05 125.28 283.05 167.82 283.16 168.29 283.22 168.64 283.39 168.99 283.51 169.34 283.75 169.69 283.98 169.98 284.27 170.28 284.5 170.57 284.86 170.8 285.15 170.97 285.5 171.15 285.91 171.27 286.25 171.38 286.66 171.44 328.8 171.44"/><rect class="cls-4" x="381.85" y="60.38" width="58.94" height="58.54"/><rect class="cls-3" x="381.85" y="60.38" width="58.94" height="58.54"/><polyline class="cls-2" points="432.16 114.54 432.57 114.54 432.97 114.48 433.32 114.36 433.73 114.25 434.08 114.07 434.96 113.37 435.25 113.08 435.48 112.79 435.83 112.09 436.01 111.68 436.07 111.33 436.13 110.92 436.13 68.38 436.07 67.97 436.01 67.56 435.48 66.51 435.25 66.22 434.96 65.93 434.38 65.46 434.08 65.28 433.73 65.05 433.32 64.94 432.97 64.82 432.57 64.76 389.96 64.76 389.56 64.82 388.85 65.05 388.5 65.28 388.09 65.46 387.86 65.69 387.51 65.93 387.04 66.51 386.52 67.56 386.4 67.97 386.4 68.38 386.34 68.79 386.34 110.51 386.4 110.92 386.4 111.33 386.52 111.68 386.69 112.09 387.04 112.79 387.51 113.37 387.86 113.61 388.09 113.84 388.5 114.07 388.85 114.25 389.56 114.48 389.96 114.54 432.16 114.54"/><polyline class="cls-3" points="432.16 114.54 432.57 114.54 432.97 114.48 433.32 114.36 433.73 114.25 434.08 114.07 434.96 113.37 435.25 113.08 435.48 112.79 435.83 112.09 436.01 111.68 436.07 111.33 436.13 110.92 436.13 68.38 436.07 67.97 436.01 67.56 435.48 66.51 435.25 66.22 434.96 65.93 434.38 65.46 434.08 65.28 433.73 65.05 433.32 64.94 432.97 64.82 432.57 64.76 389.96 64.76 389.56 64.82 388.85 65.05 388.5 65.28 388.09 65.46 387.86 65.69 387.51 65.93 387.04 66.51 386.52 67.56 386.4 67.97 386.4 68.38 386.34 68.79 386.34 110.51 386.4 110.92 386.4 111.33 386.52 111.68 386.69 112.09 387.04 112.79 387.51 113.37 387.86 113.61 388.09 113.84 388.5 114.07 388.85 114.25 389.56 114.48 389.96 114.54 432.16 114.54"/><polyline class="cls-2" points="252.23 78.24 241.55 78.24 238.17 74.86 238.17 64.18 241.55 60.79 252.23 60.79 255.62 64.18 255.62 74.86 252.23 78.24"/><polyline class="cls-3" points="252.23 78.24 241.55 78.24 238.17 74.86 238.17 64.18 241.55 60.79 252.23 60.79 255.62 64.18 255.62 74.86 252.23 78.24"/><polyline class="cls-2" points="271.61 78.24 260.98 78.24 257.6 74.86 257.6 64.18 260.98 60.79 271.61 60.79 274.99 64.18 274.99 74.86 271.61 78.24"/><polyline class="cls-3" points="271.61 78.24 260.98 78.24 257.6 74.86 257.6 64.18 260.98 60.79 271.61 60.79 274.99 64.18 274.99 74.86 271.61 78.24"/><polyline class="cls-2" points="271.32 174.07 252.52 174.07 249.14 170.69 249.14 151.72 252.52 148.39 271.32 148.39 274.7 151.72 274.7 170.69 271.32 174.07"/><rect x="269.68" y="173.66" width="1.64" height="0.76"/><rect x="266.53" y="173.66" width="1.57" height="0.76"/><rect x="263.32" y="173.66" width="1.57" height="0.76"/><rect x="260.11" y="173.66" width="1.58" height="0.76"/><rect x="256.9" y="173.66" width="1.57" height="0.76"/><rect x="253.69" y="173.66" width="1.63" height="0.76"/><polyline points="250.83 172.84 251.35 172.32 252.52 173.43 251.94 174.01"/><polyline points="248.79 170.69 248.91 170.91 249.66 171.73 250.25 171.15 249.43 170.39 249.55 170.69"/><rect x="248.79" y="170.22" width="0.76" height="0.47"/><rect x="248.79" y="166.95" width="0.76" height="1.64"/><rect x="248.79" y="163.8" width="0.76" height="1.57"/><rect x="248.79" y="160.53" width="0.76" height="1.63"/><rect x="248.79" y="157.38" width="0.76" height="1.58"/><rect x="248.79" y="154.17" width="0.76" height="1.58"/><polyline points="248.91 151.48 248.79 151.72 248.79 152.59 249.55 152.59 249.55 151.72 249.43 152.01"/><polyline points="249.43 150.9 250.02 151.48 249.43 152.01 248.91 151.48"/><polyline points="251.71 148.62 252.29 149.2 251.12 150.31 250.6 149.79"/><rect x="253.34" y="147.98" width="1.58" height="0.76"/><rect x="256.55" y="147.98" width="1.57" height="0.76"/><rect x="259.76" y="147.98" width="1.57" height="0.76"/><rect x="262.97" y="147.98" width="1.58" height="0.76"/><rect x="266.18" y="147.98" width="1.57" height="0.76"/><rect x="269.39" y="147.98" width="1.57" height="0.76"/><polyline points="273.65 150.08 273.07 150.66 271.9 149.56 272.48 148.97"/><polyline points="275.11 151.72 274.99 151.48 274.7 151.25 274.18 151.78 274.41 152.01 274.29 151.72"/><rect x="274.29" y="151.72" width="0.82" height="1.29"/><rect x="274.29" y="154.63" width="0.82" height="1.57"/><rect x="274.29" y="157.79" width="0.82" height="1.63"/><rect x="274.29" y="161.05" width="0.82" height="1.58"/><rect x="274.29" y="164.2" width="0.82" height="1.63"/><rect x="274.29" y="167.42" width="0.82" height="1.63"/><polyline points="274.99 170.91 275.11 170.69 275.11 170.63 274.29 170.63 274.29 170.69 274.41 170.39"/><polyline points="273.88 172.03 273.3 171.5 274.41 170.39 274.99 170.91"/><polyline points="271.32 174.42 271.61 174.3 272.71 173.19 272.19 172.61 271.02 173.78 271.32 173.66"/><polyline class="cls-2" points="271.32 146.7 252.52 146.7 249.14 143.31 249.14 116.76 252.52 113.37 271.32 113.37 274.7 116.76 274.7 143.31 271.32 146.7"/><polyline class="cls-3" points="271.32 146.7 252.52 146.7 249.14 143.31 249.14 116.76 252.52 113.37 271.32 113.37 274.7 116.76 274.7 143.31 271.32 146.7"/><polyline class="cls-2" points="244.29 131.23 233.61 131.23 230.23 127.84 230.23 117.22 233.61 113.84 244.29 113.84 247.68 117.22 247.68 127.84 244.29 131.23"/><rect x="242.66" y="130.88" width="1.63" height="0.76"/><rect x="239.51" y="130.88" width="1.58" height="0.76"/><rect x="236.24" y="130.88" width="1.63" height="0.76"/><polyline points="233.38 131.53 233.61 131.64 234.66 131.64 234.66 130.88 233.61 130.88 233.91 131"/><polyline points="232.97 131.12 233.5 130.59 233.91 131 233.38 131.53"/><polyline points="230.69 128.84 231.28 128.31 232.39 129.42 231.81 130"/><rect x="229.88" y="125.69" width="0.76" height="1.57"/><rect x="229.88" y="122.48" width="0.76" height="1.63"/><rect x="229.88" y="119.27" width="0.76" height="1.58"/><polyline points="230 116.94 229.88 117.22 229.88 117.69 230.64 117.69 230.64 117.22 230.52 117.46"/><polyline points="230.75 116.11 231.28 116.7 230.52 117.46 230 116.94"/><polyline points="233.03 113.84 233.61 114.42 232.45 115.53 231.92 115.01"/><rect x="234.78" y="113.43" width="1.58" height="0.82"/><rect x="237.99" y="113.43" width="1.57" height="0.82"/><rect x="241.2" y="113.43" width="1.57" height="0.82"/><polyline points="245.75 114.72 245.17 115.3 244.06 114.19 244.64 113.61"/><polyline points="248.09 117.22 247.97 116.94 246.92 115.88 246.34 116.41 247.39 117.46 247.27 117.22"/><rect x="247.27" y="117.22" width="0.82" height="0.12"/><rect x="247.27" y="118.92" width="0.82" height="1.57"/><rect x="247.27" y="122.13" width="0.82" height="1.64"/><rect x="247.27" y="125.34" width="0.82" height="1.57"/><polyline points="246.34 129.77 245.75 129.19 246.86 128.08 247.44 128.61"/><polyline points="244.29 131.64 244.59 131.53 245.17 130.88 244.64 130.3 244 131 244.29 130.88"/><rect class="cls-4" x="443.01" y="60.38" width="59" height="58.54"/><rect class="cls-3" x="443.01" y="60.38" width="59" height="58.54"/><polyline class="cls-2" points="493.43 114.54 493.79 114.54 494.19 114.48 495.01 114.25 495.3 114.07 495.65 113.84 496.23 113.37 496.53 113.08 496.76 112.79 497.11 112.09 497.23 111.68 497.34 111.33 497.4 110.92 497.4 68.38 497.34 67.97 497.23 67.56 497.11 67.21 496.76 66.51 496.53 66.22 496.23 65.93 495.65 65.46 495.3 65.28 495.01 65.05 494.19 64.82 493.79 64.76 451.24 64.76 450.83 64.82 450.48 64.94 450.07 65.05 449.78 65.28 449.37 65.46 448.79 65.93 448.32 66.51 448.09 66.86 447.97 67.21 447.8 67.56 447.68 67.97 447.68 68.38 447.62 68.79 447.62 110.51 447.68 110.92 447.68 111.33 447.8 111.68 447.97 112.09 448.09 112.44 448.32 112.79 448.79 113.37 449.37 113.84 449.78 114.07 450.07 114.25 450.48 114.36 450.83 114.48 451.24 114.54 493.43 114.54"/><polyline class="cls-3" points="493.43 114.54 493.79 114.54 494.19 114.48 495.01 114.25 495.3 114.07 495.65 113.84 496.23 113.37 496.53 113.08 496.76 112.79 497.11 112.09 497.23 111.68 497.34 111.33 497.4 110.92 497.4 68.38 497.34 67.97 497.23 67.56 497.11 67.21 496.76 66.51 496.53 66.22 496.23 65.93 495.65 65.46 495.3 65.28 495.01 65.05 494.19 64.82 493.79 64.76 451.24 64.76 450.83 64.82 450.48 64.94 450.07 65.05 449.78 65.28 449.37 65.46 448.79 65.93 448.32 66.51 448.09 66.86 447.97 67.21 447.8 67.56 447.68 67.97 447.68 68.38 447.62 68.79 447.62 110.51 447.68 110.92 447.68 111.33 447.8 111.68 447.97 112.09 448.09 112.44 448.32 112.79 448.79 113.37 449.37 113.84 449.78 114.07 450.07 114.25 450.48 114.36 450.83 114.48 451.24 114.54 493.43 114.54"/><polyline class="cls-2" points="385.93 118.92 385.93 175.88 337.44 175.88 337.44 58.22 381.85 58.22 381.85 118.92 385.93 118.92"/><polyline class="cls-3" points="385.93 118.92 385.93 175.88 337.44 175.88 337.44 58.22 381.85 58.22 381.85 118.92 385.93 118.92"/><polyline class="cls-2" points="544.97 113.37 544.97 118.86 501.96 119.03 501.96 58.57 544.97 113.37"/><path class="cls-3" d="M545,64.29v51.83m0-2.75v5.49L502,119V58.57"/><polyline class="cls-2" points="63.14 113.37 63.14 118.92 106.33 118.92 106.33 60.44 63.14 113.37"/><path class="cls-3" d="M63.14,65.75v49.43m0-1.81v5.55h43.19V60.44"/><rect class="cls-4" x="278.43" y="58.22" width="59" height="57.43"/><rect class="cls-3" x="278.43" y="58.22" width="59" height="57.43"/><polyline class="cls-2" points="328.8 111.21 329.27 111.21 329.62 111.15 330.03 111.1 331.08 110.57 331.37 110.34 331.66 110.05 332.36 109.17 332.54 108.82 332.65 108.41 332.77 108.06 332.83 107.59 332.89 107.24 332.89 65.46 332.83 65.05 332.77 64.64 332.65 64.29 332.54 63.94 332.36 63.59 332.13 63.19 331.66 62.6 331.08 62.13 330.38 61.78 330.03 61.66 329.62 61.55 329.27 61.49 328.8 61.43 287.07 61.43 286.25 61.55 285.91 61.66 285.5 61.78 285.15 61.96 284.86 62.13 284.5 62.37 283.98 62.89 283.75 63.19 283.51 63.59 283.39 63.94 283.22 64.29 283.16 64.64 283.05 65.05 283.05 107.59 283.16 108.06 283.22 108.41 283.39 108.82 283.51 109.17 283.98 109.75 284.27 110.05 284.5 110.34 284.86 110.57 285.15 110.75 285.5 110.92 285.91 111.1 286.25 111.15 286.66 111.21 328.8 111.21"/><polyline class="cls-3" points="328.8 111.21 329.27 111.21 329.62 111.15 330.03 111.1 331.08 110.57 331.37 110.34 331.66 110.05 332.36 109.17 332.54 108.82 332.65 108.41 332.77 108.06 332.83 107.59 332.89 107.24 332.89 65.46 332.83 65.05 332.77 64.64 332.65 64.29 332.54 63.94 332.36 63.59 332.13 63.19 331.66 62.6 331.08 62.13 330.38 61.78 330.03 61.66 329.62 61.55 329.27 61.49 328.8 61.43 287.07 61.43 286.25 61.55 285.91 61.66 285.5 61.78 285.15 61.96 284.86 62.13 284.5 62.37 283.98 62.89 283.75 63.19 283.51 63.59 283.39 63.94 283.22 64.29 283.16 64.64 283.05 65.05 283.05 107.59 283.16 108.06 283.22 108.41 283.39 108.82 283.51 109.17 283.98 109.75 284.27 110.05 284.5 110.34 284.86 110.57 285.15 110.75 285.5 110.92 285.91 111.1 286.25 111.15 286.66 111.21 328.8 111.21"/><rect class="cls-4" x="342.4" y="74.62" width="35.48" height="31.28"/><path class="cls-3" d="M342.75,87.23h34.49M342.4,74.62V105.9h35.48V74.62Z"/><rect class="cls-4" x="342.4" y="59.62" width="35.48" height="9.63"/><rect class="cls-3" x="342.4" y="59.62" width="35.48" height="9.63"/><polyline class="cls-2" points="374.73 128.37 364.05 128.37 360.66 124.99 360.66 114.36 364.05 110.98 374.73 110.98 378.11 114.36 378.11 124.99 374.73 128.37"/><polyline class="cls-3" points="374.73 128.37 364.05 128.37 360.66 124.99 360.66 114.36 364.05 110.98 374.73 110.98 378.11 114.36 378.11 124.99 374.73 128.37"/><polyline class="cls-2" points="355.7 144.01 345.02 144.01 341.7 140.63 341.7 114.36 345.02 110.98 355.7 110.98 359.09 114.36 359.09 140.63 355.7 144.01"/><polyline class="cls-3" points="355.7 144.01 345.02 144.01 341.7 140.63 341.7 114.36 345.02 110.98 355.7 110.98 359.09 114.36 359.09 140.63 355.7 144.01"/><polyline class="cls-2" points="271.32 111.33 252.52 111.33 249.14 108 249.14 89.09 252.52 85.71 271.32 85.71 274.7 89.09 274.7 108 271.32 111.33"/><polyline class="cls-3" points="271.32 111.33 252.52 111.33 249.14 108 249.14 89.09 252.52 85.71 271.32 85.71 274.7 89.09 274.7 108 271.32 111.33"/><polyline class="cls-2" points="363.64 171.91 344.91 171.91 341.52 168.53 341.52 149.62 344.91 146.23 363.64 146.23 367.03 149.62 367.03 168.53 363.64 171.91"/><path class="cls-3" d="M64.37,97.91h42m257.31,74H344.91l-3.39-3.38V149.62l3.39-3.39h18.73l3.39,3.39v18.91l-3.39,3.38"/><rect class="cls-4" x="413.07" y="125.4" width="104.46" height="9.11"/><rect x="517.13" y="132.87" width="0.76" height="1.64"/><rect x="517.13" y="129.66" width="0.76" height="1.57"/><rect x="517.13" y="126.45" width="0.76" height="1.63"/><rect x="515.38" y="124.99" width="1.57" height="0.82"/><rect x="512.17" y="124.99" width="1.64" height="0.82"/><rect x="508.96" y="124.99" width="1.64" height="0.82"/><rect x="505.75" y="124.99" width="1.63" height="0.82"/><rect x="502.6" y="124.99" width="1.57" height="0.82"/><rect x="499.33" y="124.99" width="1.64" height="0.82"/><rect x="496.18" y="124.99" width="1.57" height="0.82"/><rect x="492.97" y="124.99" width="1.57" height="0.82"/><rect x="489.76" y="124.99" width="1.63" height="0.82"/><rect x="486.55" y="124.99" width="1.58" height="0.82"/><rect x="483.34" y="124.99" width="1.63" height="0.82"/><rect x="480.13" y="124.99" width="1.63" height="0.82"/><rect x="476.92" y="124.99" width="1.64" height="0.82"/><rect x="473.77" y="124.99" width="1.58" height="0.82"/><rect x="470.56" y="124.99" width="1.57" height="0.82"/><rect x="467.35" y="124.99" width="1.57" height="0.82"/><rect x="464.14" y="124.99" width="1.58" height="0.82"/><rect x="460.93" y="124.99" width="1.63" height="0.82"/><rect x="457.72" y="124.99" width="1.57" height="0.82"/><rect x="454.51" y="124.99" width="1.64" height="0.82"/><rect x="451.3" y="124.99" width="1.63" height="0.82"/><rect x="448.09" y="124.99" width="1.63" height="0.82"/><rect x="444.94" y="124.99" width="1.57" height="0.82"/><rect x="441.73" y="124.99" width="1.58" height="0.82"/><rect x="438.52" y="124.99" width="1.57" height="0.82"/><rect x="435.31" y="124.99" width="1.57" height="0.82"/><rect x="432.1" y="124.99" width="1.63" height="0.82"/><rect x="428.89" y="124.99" width="1.58" height="0.82"/><rect x="425.68" y="124.99" width="1.63" height="0.82"/><rect x="422.47" y="124.99" width="1.63" height="0.82"/><rect x="419.26" y="124.99" width="1.64" height="0.82"/><rect x="416.11" y="124.99" width="1.57" height="0.82"/><polyline points="413.48 125.4 413.07 125.8 414.47 125.8 414.47 124.99 413.07 124.99 412.72 125.4"/><rect x="412.72" y="125.4" width="0.76" height="0.18"/><rect x="412.72" y="127.2" width="0.76" height="1.57"/><rect x="412.72" y="130.42" width="0.76" height="1.57"/><polyline points="413.07 134.03 413.48 134.5 413.48 133.62 412.72 133.62 412.72 134.5 413.07 134.85"/><rect x="413.07" y="134.03" width="0.76" height="0.82"/><rect x="415.41" y="134.03" width="1.64" height="0.82"/><rect x="418.62" y="134.03" width="1.57" height="0.82"/><rect x="421.83" y="134.03" width="1.63" height="0.82"/><rect x="425.04" y="134.03" width="1.58" height="0.82"/><rect x="428.25" y="134.03" width="1.57" height="0.82"/><rect x="431.4" y="134.03" width="1.63" height="0.82"/><rect x="434.67" y="134.03" width="1.57" height="0.82"/><rect x="437.82" y="134.03" width="1.64" height="0.82"/><rect x="441.09" y="134.03" width="1.57" height="0.82"/><rect x="444.24" y="134.03" width="1.63" height="0.82"/><rect x="447.44" y="134.03" width="1.58" height="0.82"/><rect x="450.66" y="134.03" width="1.63" height="0.82"/><rect x="453.87" y="134.03" width="1.57" height="0.82"/><rect x="457.08" y="134.03" width="1.57" height="0.82"/><rect x="460.23" y="134.03" width="1.64" height="0.82"/><rect x="463.5" y="134.03" width="1.57" height="0.82"/><rect x="466.65" y="134.03" width="1.63" height="0.82"/><rect x="469.91" y="134.03" width="1.58" height="0.82"/><rect x="473.07" y="134.03" width="1.64" height="0.82"/><rect x="476.28" y="134.03" width="1.57" height="0.82"/><rect x="479.49" y="134.03" width="1.63" height="0.82"/><rect x="482.69" y="134.03" width="1.58" height="0.82"/><rect x="485.91" y="134.03" width="1.57" height="0.82"/><rect x="489.06" y="134.03" width="1.63" height="0.82"/><rect x="492.32" y="134.03" width="1.58" height="0.82"/><rect x="495.48" y="134.03" width="1.64" height="0.82"/><rect x="498.75" y="134.03" width="1.57" height="0.82"/><rect x="501.9" y="134.03" width="1.63" height="0.82"/><rect x="505.11" y="134.03" width="1.58" height="0.82"/><rect x="508.32" y="134.03" width="1.63" height="0.82"/><rect x="511.53" y="134.03" width="1.57" height="0.82"/><rect x="514.74" y="134.03" width="1.57" height="0.82"/><rect class="cls-4" x="344.62" y="91.84" width="9.51" height="4.55"/><rect class="cls-3" x="344.62" y="91.84" width="9.51" height="4.55"/><rect class="cls-4" x="356.41" y="91.84" width="4.55" height="4.55"/><rect class="cls-3" x="356.41" y="91.84" width="4.55" height="4.55"/><rect class="cls-4" x="345.2" y="79.23" width="13.6" height="4.55"/><path class="cls-3" d="M349.7,91.84v4.55m.11-17.16v4.55m-4.61-4.55v4.55h13.6V79.23Z"/><rect class="cls-4" x="97.05" y="65.4" width="4.55" height="4.5"/><rect class="cls-3" x="97.05" y="65.4" width="4.55" height="4.5"/><polyline class="cls-2" points="104.47 58.22 508.02 58.22 508.02 44.27 374.56 29.68 236.82 29.68 104.47 44.63 104.47 58.22"/><path class="cls-3" d="M412.49,33.83V58.22m-60-28.53V58.17M267.11,29.69V58.22M199.47,33.89V58.17m-95,0H508V44.28L374.55,29.69H236.82L104.46,44.63V58.22"/><rect class="cls-4" x="507.91" y="65.52" width="4.55" height="4.55"/><path class="cls-3" d="M505.16,44l84.57,8.35m-481-8.23L35,52.85m72.25,7.42-57.84,7m452.18-8.7,70.5,9.4M189.67,49.47V54h4.49V49.47Zm-26,0V54h4.55V49.47Zm0-8.87v4.49h4.55V40.6Zm-44.3,8.87V54H124V49.47ZM444.59,41v4.61h4.49V41Zm-.23,8.46V54h4.55V49.47Zm-26.21,0V54h4.49V49.47Zm89.76,16v4.55h4.55V65.52Z"/><polyline points="52.23 70.89 52.58 70.59 53.22 71.24 52.87 71.53"/><polyline points="50.95 69.6 51.24 69.25 51.94 69.9 51.59 70.24"/><polyline points="49.66 68.26 49.95 67.97 50.6 68.61 50.25 68.96"/><polyline points="48.32 66.98 48.61 66.69 49.25 67.33 48.96 67.62"/><polyline points="46.98 65.69 47.33 65.34 47.97 65.99 47.68 66.33"/><polyline points="45.64 64.41 46.04 64.06 46.63 64.7 46.34 64.99"/><polyline points="44.35 63.07 44.7 62.72 45.34 63.41 45.05 63.71"/><polyline points="43.07 61.78 43.36 61.43 44.06 62.08 43.71 62.42"/><polyline points="41.73 60.44 42.07 60.15 42.72 60.79 42.43 61.14"/><polyline points="40.44 59.16 40.73 58.87 41.43 59.45 41.08 59.8"/><polyline points="39.16 57.87 39.45 57.52 40.09 58.16 39.74 58.51"/><polyline points="37.82 56.59 38.16 56.24 38.81 56.88 38.46 57.17"/><polyline points="36.47 55.25 36.82 54.9 37.47 55.59 37.17 55.89"/><polyline points="35.19 53.9 35.54 53.61 36.18 54.26 35.83 54.6"/><polyline points="33.85 52.62 34.2 52.33 34.84 52.97 34.55 53.32"/><polyline points="32.56 51.34 32.85 51.04 33.55 51.63 33.26 51.98"/><polyline points="31.22 50.05 31.57 49.7 32.22 50.34 31.92 50.69"/><polyline points="30.46 48.94 30.34 49.12 30.58 49.35 30.93 49.06 30.64 48.77 30.46 48.94"/><polyline points="592.53 50.17 592.24 49.82 592.88 49.24 593.17 49.53"/><polyline points="591.13 51.4 590.84 51.04 591.48 50.4 591.83 50.81"/><polyline points="589.79 52.68 589.44 52.33 590.14 51.69 590.43 52.04"/><polyline points="588.39 53.9 588.09 53.55 588.8 52.97 589.09 53.26"/><polyline points="587.05 55.13 586.7 54.78 587.39 54.14 587.75 54.54"/><polyline points="585.7 56.36 585.35 56.06 586.05 55.42 586.34 55.77"/><polyline points="584.3 57.64 584.01 57.29 584.65 56.7 585 57"/><polyline points="582.9 58.87 582.61 58.51 583.31 57.93 583.6 58.28"/><polyline points="581.56 60.09 581.21 59.8 581.97 59.16 582.2 59.45"/><polyline points="580.16 61.37 579.87 61.02 580.57 60.38 580.86 60.73"/><polyline points="578.82 62.6 578.52 62.25 579.17 61.66 579.52 62.02"/><polyline points="577.47 63.83 577.13 63.47 577.82 62.89 578.12 63.19"/><polyline points="576.07 65.11 575.78 64.76 576.42 64.12 576.77 64.47"/><polyline points="574.73 66.33 574.38 65.99 575.08 65.4 575.37 65.75"/><polyline points="573.33 67.56 573.04 67.21 573.74 66.63 574.03 66.98"/><polyline points="571.93 68.84 571.64 68.49 572.34 67.85 572.69 68.2"/><polyline points="570.59 70.07 570.3 69.72 571 69.13 571.29 69.49"/><polyline class="cls-3" points="32.33 50.69 104.99 41.88 233.97 26.41 379.87 26.41 508.55 41.88 591.48 50.46"/><g class="cls-5"><polyline class="cls-3" points="59.53 69.54 59.53 163.91 0.41 158.19 8.05 118.16 29.94 106.72 59.53 69.54"/><path class="cls-6" d="M46.16,113.78l.59-.06.46,0,.59-.12.46-.18.94-.46.81-.71.35-.4.3-.35L51,111l.17-.47.23-.52.12-.53.06-.52.06-.53-.06-.58-.06-.53-.12-.52-.23-.53-.17-.46-.59-.82-.35-.41-.41-.35-.4-.29-.47-.29-.47-.24-.46-.11-.59-.18-.46-.11H45.64l-.59.11-.46.18-.53.11-.47.24-.47.29-.4.29-.35.35-.7.82-.24.41-.23.46-.23.53-.12.52-.06.53-.06.58.06.53.06.52L41,110l.23.52.47.94.35.35.35.4.35.36.4.35.94.46.53.18.46.12.59,0,.52.06m8.29,41.32h.23L55,155l.24,0,.93-.47.18-.24.35-.34.11-.3.24-.47.11-.46V122.48l-.06-.29,0-.24-.35-.7-.18-.23-.35-.35-.23-.18-.47-.23-.47-.12-.29-.06-.23,0H12.61l-.24,0-.29.06-.24.06-.28.06-.24.12-.18.11-.23.18-.35.35-.17.23L10,122l-.06.24v.29l-.06.29v29.65l.06.29v.23l.06.23.23.47.12.3.35.34.17.24.23.11.18.12.24.12.28.12.24,0,.29.06H54.45"/><path class="cls-7" d="M12.31,154.17h.3l.46-.23.18-.12.23-.24.12-.23.06-.23v-.53l-.06-.29-.12-.17-.23-.3-.18-.11-.46-.24H12l-.46.24-.18.11-.18.3-.17.17-.06.29v.53l.06.23.35.47.18.12.46.23h.29m42.43-30.64H55l.24-.06.23-.12.18-.17.17-.24.11-.23.06-.23.06-.29L56,122l-.06-.23-.11-.23-.17-.24-.18-.17-.47-.23h-.58l-.47.23-.23.17-.12.24-.23.46v.53l.23.46.12.24.23.17.23.12.24.06h.29m.11,30.64h.3l.47-.23.17-.12.17-.24.12-.23.06-.23.06-.29-.06-.24-.06-.29-.12-.17-.17-.3-.17-.11-.47-.24h-.58l-.71.35-.11.3-.12.17-.11.29v.53l.23.46.11.24.71.35h.28M12.31,123.53h.3l.23-.06.23-.12.41-.41.12-.23.06-.23V122l-.06-.23-.12-.23-.41-.41-.46-.23H12l-.46.23-.18.17-.35.47L11,122v.53l.06.23.35.47.18.17.23.12.23.06h.29"/><polyline class="cls-8" points="42.07 152.47 25.62 152.47 19.02 145.82 19.02 129.37 25.62 122.65 42.07 122.65 48.79 129.37 48.79 145.82 42.07 152.47"/><polyline class="cls-9" points="54.85 153.12 54.91 153.12 54.97 153.06 55.09 153.06 55.09 152.88 55.15 152.83 55.09 152.77 55.09 152.65 55.03 152.59 54.68 152.59 54.68 152.65 54.63 152.71 54.57 152.71 54.57 152.94 54.68 153.06 54.74 153.06 54.8 153.12 54.85 153.12"/><polyline class="cls-9" points="12.31 153.12 12.37 153.12 12.43 153.06 12.49 153.06 12.55 153 12.55 152.94 12.61 152.88 12.61 152.77 12.49 152.65 12.49 152.59 12.14 152.59 12.14 152.65 12.02 152.77 12.02 152.88 12.08 152.94 12.08 153 12.14 153.06 12.2 153.06 12.25 153.12 12.31 153.12"/><polyline class="cls-9" points="54.74 122.48 54.8 122.48 54.85 122.42 54.97 122.42 54.97 122.24 55.03 122.19 54.97 122.19 54.97 122.01 54.91 121.95 54.57 121.95 54.57 122.01 54.51 122.07 54.45 122.07 54.45 122.3 54.57 122.42 54.63 122.42 54.68 122.48 54.74 122.48"/><polyline class="cls-9" points="12.31 122.48 12.37 122.48 12.43 122.42 12.49 122.42 12.55 122.36 12.55 122.3 12.61 122.24 12.61 122.19 12.55 122.07 12.49 122.01 12.49 121.95 12.14 121.95 12.14 122.01 12.08 122.07 12.02 122.19 12.02 122.24 12.08 122.3 12.08 122.36 12.14 122.42 12.2 122.42 12.25 122.48 12.31 122.48"/></g><polyline class="cls-3" points="548.12 68.55 548.12 162.98 607.24 157.26 599.59 117.22 577.65 105.79 548.12 68.55"/><path class="cls-6" d="M561.43,112.85l-1-.12-.53-.11-.47-.18-.47-.24-.46-.28-.41-.3-.41-.35-.35-.4-.29-.42-.29-.46-.18-.47-.23-.46-.12-.53-.11-.52V106.9l.11-.53.12-.52.23-.53.18-.47.29-.41.29-.46.35-.35.41-.35.41-.29.46-.3.47-.23.47-.17,1-.24H562l1,.24.53.17.46.23.41.3.47.29.7.7.29.46.29.41.23.47.18.53.11.52.12.53V108l-.12.52-.11.53-.18.46-.23.47-.29.46-.29.42-.35.4-.35.35-.47.3-.41.28-.46.24-.53.18-.52.11-.53.06-.58.06m-8.24,41.32h-.29l-.23-.06-.29-.06-.47-.23-.23-.18-.18-.11-.17-.18-.24-.18-.46-.93-.06-.23-.06-.29V121.54l.06-.29.06-.23.12-.29.11-.24.12-.17.11-.24.24-.17.35-.35.7-.35.29-.06h.23l.29-.06H595l.29.06h.3l.23.06.29.12.23.11.18.12.18.18.23.17.17.17.18.24.12.17.11.24.06.29.12.23V152l-.12.23-.06.23-.23.47-.18.23-.17.18-.23.18-.18.11-.18.18-.23.12-.29.11-.23.06-.3.06H553.19"/><path class="cls-7" d="M595.33,153.23l-.58-.11-.18-.12-.17-.17-.24-.18-.11-.23-.06-.29-.06-.24.06-.29.06-.23.11-.24.24-.23.35-.23.29-.12h.53l.29.12.23.11.18.12.17.23.12.24.06.23.06.29-.06.24-.06.29-.12.23-.35.35-.23.12-.29,0-.24.06M552.9,122.6l-.29-.06-.23-.06-.24-.12-.23-.17-.11-.18-.18-.23-.06-.24V121l.06-.23.18-.24.11-.17.23-.18.47-.23h.53l.47.23.23.18.17.17.12.24.06.23v.58l-.06.24L554,122l-.17.18-.23.17-.24.12-.47.12m-.11,30.63-.29-.06-.24,0L552,153l-.23-.17-.12-.18-.18-.23-.06-.29v-.53l.06-.23.18-.24.12-.23.7-.35H553l.7.35.17.23.12.24.06.23v.53l-.06.29-.12.23-.17.18-.23.17-.24.12-.46.11m42.54-30.63-.58-.12-.18-.12-.17-.17-.24-.18-.11-.23-.06-.24-.06-.29L594,121l.06-.23.11-.24.24-.17.17-.18.18-.11.29-.12h.53l.29.12.23.11.35.35.12.24.06.23.06.29-.06.29-.06.24-.12.23-.35.35-.23.12-.29.06-.24.06"/><polyline class="cls-8" points="565.51 151.48 581.97 151.48 588.62 144.89 588.62 128.43 581.97 121.72 565.51 121.72 558.86 128.43 558.86 144.89 565.51 151.48"/><polyline class="cls-9" points="552.79 152.13 552.61 152.13 552.55 152.07 552.55 152.01 552.5 151.95 552.5 151.83 552.55 151.78 552.55 151.72 552.67 151.6 552.9 151.6 552.9 151.66 552.96 151.72 553.02 151.72 553.02 152.01 552.9 152.13 552.79 152.13"/><polyline class="cls-9" points="595.33 152.13 595.16 152.13 595.1 152.07 595.1 152.01 595.04 152.01 595.04 151.78 595.22 151.6 595.39 151.6 595.51 151.72 595.57 151.72 595.57 152.01 595.45 152.13 595.33 152.13"/><polyline class="cls-9" points="552.9 121.54 552.85 121.54 552.79 121.49 552.67 121.49 552.67 121.37 552.61 121.31 552.61 121.19 552.67 121.13 552.67 121.08 552.79 120.96 553.02 120.96 553.02 121.02 553.08 121.08 553.14 121.08 553.14 121.43 553.08 121.49 553.02 121.49 552.96 121.54 552.9 121.54"/><polyline class="cls-9" points="595.33 121.54 595.22 121.54 595.22 121.49 595.1 121.49 595.1 121.43 595.04 121.37 595.04 121.13 595.22 120.96 595.39 120.96 595.51 121.08 595.57 121.08 595.57 121.43 595.51 121.49 595.39 121.49 595.33 121.54"/><path class="cls-3" d="M274.58,108.06v-.64l-.11-.29-.12-.29-.12-.35-.35-.47-.46-.47-.24-.17-.29-.18-.87-.35-.36-.06H271l-.29.06-.29.12-.35.12-.23.11-.29.18-.24.17-.47.47-.34.47-.12.35-.23.58v.29l-.06.35.06.35v.35l.35.88.17.29.17.23.47.47.24.18.29.17.23.12.35.11.29.12h.71M371.93,96.39h.29l.23-.06.3,0,.23-.12.18-.12.23-.12.23-.17.52-.53.24-.46.06-.24.06-.23.05-.29v-.53l-.05-.23-.06-.29-.06-.24-.12-.23-.12-.17-.17-.24-.35-.35-.23-.17-.23-.12-.18-.12-.23,0-.3-.06-.23-.06h-.52l-.3.06-.46.11-.47.24-.24.17-.11.18-.23.17-.12.24-.12.17-.23.47-.06.29-.06.23V94l.06.29.06.23.35.7.12.18.23.17.11.18.24.17.7.36.23,0,.3.06h.23m14,41.32h4.38m-172.16,0h4.32"/><polyline class="cls-2" points="175.25 154.87 146.31 154.87 145.43 153.06 143.97 151.6 142.52 151.08 142.16 151.08 141.99 151.13 141.75 151.25 141.47 151.42 141.06 151.6 140.7 151.89 140.41 152.13 140.18 152.36 140 152.59 139.89 152.83 139.77 153 139.66 153.12 139.66 153.17 138.66 154.87 109.77 154.87 109.77 123.41 122.97 120.84 162.3 120.84 175.25 123.41 175.25 154.87"/><polyline class="cls-3" points="175.25 154.87 146.31 154.87 145.43 153.06 143.97 151.6 142.52 151.08 142.16 151.08 141.99 151.13 141.75 151.25 141.47 151.42 141.06 151.6 140.7 151.89 140.41 152.13 140.18 152.36 140 152.59 139.89 152.83 139.77 153 139.66 153.12 139.66 153.17 138.66 154.87 109.77 154.87 109.77 123.41 122.97 120.84 162.3 120.84 175.25 123.41 175.25 154.87"/><polyline class="cls-6" points="174.44 136.13 173.27 136.95 172.57 136.83 170.76 135.2 115.55 135.2 112.75 136.95 111.93 136.95 111.06 136.02"/><path class="cls-10" d="M173.74,123.76v11.56m-62.56-11.67V135.2"/><polyline class="cls-2" points="115.26 149.44 115.61 149.44 115.84 149.32 116.14 149.2 116.37 149.03 116.6 148.8 116.84 148.22 116.84 147.57 116.72 147.28 116.6 147.05 116.14 146.58 115.84 146.4 115.61 146.34 115.26 146.29 114.68 146.4 114.38 146.58 113.92 147.05 113.8 147.28 113.68 147.57 113.68 148.22 113.92 148.8 114.15 149.03 114.38 149.2 114.97 149.44 115.26 149.44"/><polyline class="cls-7" points="115.26 149.44 115.61 149.44 115.84 149.32 116.14 149.2 116.37 149.03 116.6 148.8 116.84 148.22 116.84 147.57 116.72 147.28 116.6 147.05 116.14 146.58 115.84 146.4 115.61 146.34 115.26 146.29 114.68 146.4 114.38 146.58 113.92 147.05 113.8 147.28 113.68 147.57 113.68 148.22 113.92 148.8 114.15 149.03 114.38 149.2 114.97 149.44 115.26 149.44"/><polyline class="cls-9" points="113.92 148.62 114.21 149.03 114.68 149.38 115.14 149.44 115.78 149.38 116.31 149.03 116.72 148.62 113.92 148.62"/><polyline class="cls-7" points="113.92 148.62 114.21 149.03 114.68 149.38 115.14 149.44 115.78 149.38 116.31 149.03 116.72 148.62 113.92 148.62"/><polyline class="cls-9" points="113.86 147.16 114.21 146.7 114.68 146.4 115.26 146.29 115.73 146.4 116.25 146.58 116.66 147.05 116.78 147.4 113.86 147.4 113.86 147.16"/><polyline class="cls-7" points="113.86 147.16 114.21 146.7 114.68 146.4 115.26 146.29 115.73 146.4 116.25 146.58 116.66 147.05 116.78 147.4 113.86 147.4 113.86 147.16"/><polyline class="cls-2" points="170.41 149.73 170.99 149.62 171.23 149.44 171.46 149.32 171.69 149.09 171.93 148.5 171.93 147.87 171.69 147.28 171.46 147.05 170.99 146.7 170.41 146.58 170.06 146.64 169.77 146.7 169.3 147.05 169.07 147.28 168.95 147.57 168.84 147.87 168.84 148.5 168.95 148.8 169.07 149.09 169.3 149.32 169.53 149.44 169.77 149.62 170.06 149.67 170.41 149.73"/><polyline class="cls-7" points="170.41 149.73 170.99 149.62 171.23 149.44 171.46 149.32 171.69 149.09 171.93 148.5 171.93 147.87 171.69 147.28 171.46 147.05 170.99 146.7 170.41 146.58 170.06 146.64 169.77 146.7 169.3 147.05 169.07 147.28 168.95 147.57 168.84 147.87 168.84 148.5 168.95 148.8 169.07 149.09 169.3 149.32 169.53 149.44 169.77 149.62 170.06 149.67 170.41 149.73"/><polyline class="cls-9" points="169.07 148.91 169.3 149.32 169.77 149.67 170.29 149.73 170.88 149.67 171.4 149.32 171.81 148.91 169.07 148.91"/><polyline class="cls-7" points="169.07 148.91 169.3 149.32 169.77 149.67 170.29 149.73 170.88 149.67 171.4 149.32 171.81 148.91 169.07 148.91"/><polyline class="cls-9" points="168.95 147.45 169.3 146.99 169.77 146.7 170.41 146.58 170.82 146.7 171.34 146.93 171.75 147.34 171.87 147.63 168.95 147.63 168.95 147.45"/><polyline class="cls-7" points="168.95 147.45 169.3 146.99 169.77 146.7 170.41 146.58 170.82 146.7 171.34 146.93 171.75 147.34 171.87 147.63 168.95 147.63 168.95 147.45"/><polyline class="cls-2" points="142.4 132.58 142.75 132.58 143.16 132.46 143.57 132.4 143.91 132.22 144.27 132.11 144.56 131.87 144.91 131.64 145.2 131.41 145.66 130.82 145.84 130.53 146.02 130.12 146.25 129.42 146.31 129.01 146.31 128.2 146.25 127.84 146.13 127.44 146.02 127.09 145.84 126.79 145.66 126.39 145.43 126.15 145.2 125.8 144.91 125.57 144.56 125.34 144.27 125.16 143.91 124.99 143.57 124.87 143.16 124.75 142.75 124.7 141.99 124.7 141.58 124.75 141.23 124.87 140.82 124.99 140.53 125.16 140.18 125.34 139.89 125.57 139.66 125.8 139.36 126.15 139.13 126.39 138.89 126.79 138.78 127.09 138.66 127.44 138.55 127.84 138.49 128.2 138.43 128.61 138.49 129.01 138.55 129.42 138.78 130.12 138.89 130.53 139.36 131.12 139.89 131.64 140.18 131.87 140.53 132.11 140.82 132.22 141.23 132.4 141.58 132.46 141.99 132.58 142.4 132.58"/><polyline class="cls-7" points="142.4 132.58 142.75 132.58 143.16 132.46 143.57 132.4 143.91 132.22 144.27 132.11 144.56 131.87 144.91 131.64 145.2 131.41 145.66 130.82 145.84 130.53 146.02 130.12 146.25 129.42 146.31 129.01 146.31 128.2 146.25 127.84 146.13 127.44 146.02 127.09 145.84 126.79 145.66 126.39 145.43 126.15 145.2 125.8 144.91 125.57 144.56 125.34 144.27 125.16 143.91 124.99 143.57 124.87 143.16 124.75 142.75 124.7 141.99 124.7 141.58 124.75 141.23 124.87 140.82 124.99 140.53 125.16 140.18 125.34 139.89 125.57 139.66 125.8 139.36 126.15 139.13 126.39 138.89 126.79 138.78 127.09 138.66 127.44 138.55 127.84 138.49 128.2 138.43 128.61 138.49 129.01 138.55 129.42 138.78 130.12 138.89 130.53 139.36 131.12 139.89 131.64 140.18 131.87 140.53 132.11 140.82 132.22 141.23 132.4 141.58 132.46 141.99 132.58 142.4 132.58"/><polyline class="cls-2" points="142.34 130.41 142.63 130.41 143.22 130.3 143.51 130.18 143.74 130.06 143.97 129.89 144.21 129.77 144.38 129.54 144.73 129.19 144.91 128.9 145.02 128.66 145.08 128.37 145.2 128.08 145.2 126.97 145.08 126.68 145.02 126.39 144.91 126.15 144.56 125.69 144.21 125.34 143.74 124.99 143.51 124.87 143.22 124.75 142.92 124.7 142.63 124.7 142.34 124.64 142.05 124.7 141.75 124.7 141.47 124.75 141.17 124.87 140.94 124.99 140.47 125.34 140.12 125.69 139.94 125.92 139.83 126.15 139.66 126.39 139.6 126.68 139.48 126.97 139.48 128.08 139.6 128.37 139.66 128.66 139.83 128.9 139.94 129.19 140.3 129.54 140.47 129.77 140.7 129.89 140.94 130.06 141.17 130.18 141.47 130.3 142.05 130.41 142.34 130.41"/><polyline class="cls-7" points="142.34 130.41 142.63 130.41 143.22 130.3 143.51 130.18 143.74 130.06 143.97 129.89 144.21 129.77 144.38 129.54 144.73 129.19 144.91 128.9 145.02 128.66 145.08 128.37 145.2 128.08 145.2 126.97 145.08 126.68 145.02 126.39 144.91 126.15 144.56 125.69 144.21 125.34 143.74 124.99 143.51 124.87 143.22 124.75 142.92 124.7 142.63 124.7 142.34 124.64 142.05 124.7 141.75 124.7 141.47 124.75 141.17 124.87 140.94 124.99 140.47 125.34 140.12 125.69 139.94 125.92 139.83 126.15 139.66 126.39 139.6 126.68 139.48 126.97 139.48 128.08 139.6 128.37 139.66 128.66 139.83 128.9 139.94 129.19 140.3 129.54 140.47 129.77 140.7 129.89 140.94 130.06 141.17 130.18 141.47 130.3 142.05 130.41 142.34 130.41"/><polyline class="cls-9" points="142.28 129.89 142.57 129.89 142.81 129.83 142.98 129.77 143.27 129.66 143.63 129.48 143.97 129.19 144.27 128.84 144.5 128.43 144.56 128.2 144.61 127.96 144.67 127.73 144.67 127.26 144.61 127.03 144.56 126.79 144.5 126.62 144.27 126.15 143.97 125.8 143.27 125.34 142.98 125.28 142.81 125.22 142.57 125.16 142.05 125.16 141.81 125.22 141.64 125.28 141.41 125.34 141 125.57 140.65 125.8 140.35 126.15 140.12 126.62 140.06 126.79 140 127.03 140 127.26 139.94 127.5 140 127.73 140 127.96 140.12 128.43 140.24 128.66 140.47 129.01 140.65 129.19 140.82 129.31 141 129.48 141.17 129.6 141.41 129.66 141.64 129.77 141.81 129.83 142.05 129.89 142.28 129.89"/><path class="cls-7" d="M142.34,130.42l.29,2.16m-.35-2.69h.29l.24-.06.17-.06.29-.11.35-.18.35-.29.3-.35.23-.41.06-.23.05-.24.06-.23v-.47l-.06-.23-.05-.24-.06-.17-.23-.47-.3-.35-.7-.46-.29-.06-.17-.06-.24-.06h-.52l-.24.06-.17.06-.23.06-.41.23-.35.23-.3.35-.23.47-.06.17L140,127v.23l-.05.24.05.23V128l.12.47.12.24.23.34.18.18.17.12.18.17.17.12.24.06.23.11.17.06.24.06h.23"/><polyline class="cls-2" points="141.17 128.72 141.35 128.72 141.58 128.66 141.93 128.43 142.16 128.08 142.16 127.9 142.22 127.67 142.16 127.5 142.16 127.26 141.93 126.91 141.75 126.79 141.58 126.74 141.35 126.68 140.94 126.68 140.59 126.79 140.41 126.91 140.18 127.26 140.12 127.5 140.12 127.9 140.18 128.08 140.41 128.43 140.76 128.66 140.94 128.72 141.17 128.72"/><polyline class="cls-7" points="141.17 128.72 141.35 128.72 141.58 128.66 141.93 128.43 142.16 128.08 142.16 127.9 142.22 127.67 142.16 127.5 142.16 127.26 141.93 126.91 141.75 126.79 141.58 126.74 141.35 126.68 140.94 126.68 140.59 126.79 140.41 126.91 140.18 127.26 140.12 127.5 140.12 127.9 140.18 128.08 140.41 128.43 140.76 128.66 140.94 128.72 141.17 128.72"/><polyline class="cls-2" points="143.39 128.14 143.63 128.14 143.85 128.08 143.97 127.96 144.15 127.84 144.38 127.5 144.44 127.32 144.44 126.91 144.38 126.68 144.27 126.5 143.97 126.21 143.63 126.04 143.22 126.04 142.98 126.15 142.81 126.21 142.52 126.5 142.46 126.68 142.4 126.91 142.4 127.32 142.52 127.67 142.63 127.84 142.98 128.08 143.22 128.14 143.39 128.14"/><polyline class="cls-7" points="143.39 128.14 143.63 128.14 143.85 128.08 143.97 127.96 144.15 127.84 144.38 127.5 144.44 127.32 144.44 126.91 144.38 126.68 144.27 126.5 143.97 126.21 143.63 126.04 143.22 126.04 142.98 126.15 142.81 126.21 142.52 126.5 142.46 126.68 142.4 126.91 142.4 127.32 142.52 127.67 142.63 127.84 142.98 128.08 143.22 128.14 143.39 128.14"/><path class="cls-9" d="M431.63,9.32l.76,2.33h1.23l-2.92-8h-1.23l-3,8h1.05l.87-2.33h3.21m-2.86-.94,1.29-3.56,1.16,3.56Z"/><polyline class="cls-9" points="438.23 11.65 438.23 10.78 437.88 11.24 437.7 11.42 437.23 11.65 437 11.71 436.71 11.83 436.07 11.83 435.71 11.71 435.13 11.48 434.96 11.36 434.84 11.19 434.67 10.83 434.55 10.72 434.55 10.49 434.49 10.25 434.49 5.81 435.48 5.81 435.48 10.02 435.54 10.31 435.66 10.49 435.77 10.72 435.95 10.83 436.13 10.89 436.59 11.01 436.82 10.95 437 10.89 437.23 10.83 437.35 10.78 437.64 10.6 437.99 10.02 438.11 9.66 438.17 9.38 438.17 5.81 439.16 5.81 439.16 11.65 438.23 11.65"/><polyline class="cls-9" points="441.79 6.63 441.79 10.43 441.84 10.6 441.9 10.72 442.02 10.83 442.78 10.83 442.78 11.65 442.66 11.65 442.54 11.71 441.67 11.71 441.44 11.59 441.2 11.53 440.97 11.19 440.91 11.01 440.85 10.72 440.85 6.63 440.09 6.63 440.09 5.81 440.85 5.81 440.85 4.24 441.79 4.24 441.79 5.81 442.78 5.81 442.78 6.63 441.79 6.63"/><path class="cls-9" d="M443.36,8.73l.06.59.12.52,0,.29.12.24.18.23.17.23.12.18.23.23.23.12.24.17.29.12.24.06.7.12.29-.06.35-.06.23-.06.29-.12.23-.17.24-.12.41-.41.17-.23.12-.23.12-.24.05-.29.12-.52.06-.59-.06-.52-.12-.59-.05-.23-.12-.29-.12-.23-.17-.24L448,6.4l-.23-.12-.24-.23-.23-.12L447,5.81l-.23,0-.35-.06h-.65l-.34.06-.24,0-.29.12-.24.12-.23.23-.23.12-.12.23-.35.47-.12.29,0,.23-.12.59-.06.52m1.05,0V8.44l.06-.35.12-.41.11-.35.24-.35.12-.11.35-.24.23,0,.17-.06h.53l.23.06.18,0,.35.24.11.11.23.35.12.35.12.41.06.35.06.29-.06.3-.06.41-.24.69-.23.36-.11.11-.35.23-.18.06-.23.06h-.53l-.17-.06-.23-.06-.35-.23-.12-.11-.24-.36-.23-.69L444.41,9Z"/><path class="cls-9" d="M453.81,11.65V11h.06l.06.12.11.17.18.12.11.12.47.23.29.12h.7l.35-.12.24-.06.29-.17.23-.12.41-.41.17-.23.12-.23.24-.59.05-.23.06-.59.06-.52L458,8.27V8l-.06-.29-.05-.23-.12-.29-.06-.24-.18-.23-.11-.17L457,6.17l-.18-.12-.7-.35h-1.05l-.46.23-.18.12-.23.12-.12.17-.23.24V3.66h-1v8h.93M457,8.73,457,9.2l-.06.41-.11.41-.18.29-.23.29-.24.18-.17.05-.18.12h-.17l-.18.06-.23-.06-.58-.23-.24-.12-.23-.29L454,10l-.05-.18-.06-.23V8.21l.11-.35.12-.41.06-.23.11-.12.12-.18.35-.23.18-.06.23,0,.29-.06.7.17.12.06.17.12.24.35.29.87.06.35Z"/><polyline class="cls-9" points="460.23 11.65 459.29 11.65 459.29 5.81 460.23 5.81 460.23 6.81 460.34 6.58 460.52 6.34 460.75 6.17 460.93 5.99 461.1 5.87 461.34 5.75 461.57 5.7 462.09 5.7 462.09 6.75 461.45 6.75 461.1 6.87 460.87 6.98 460.46 7.39 460.34 7.68 460.23 8.27 460.23 11.65"/><path class="cls-9" d="M463.73,7.62V7.45l.06-.23.06-.18.11-.17.18-.12.23-.17.29-.06h1l.23.11.35.24.12.11.05.24v.52l-.11.12-.06.11-.06.06-.12.06h-.17l-1.58.24H464l-.23.11-.23.06-.36.23-.11.12-.12.12-.11.17-.12.3-.12.23v.82l.12.34.12.3.23.23.58.35.35.06.41.06h.35l.7-.24.47-.23.23-.17.35-.36V11l.06.18v.17l.24.23.23.12h.17l.29.06h.12l.06-.06h.24l.11-.06V11h-.11V11h-.3V11h-.12v-.06l0-.06v-.05l-.06-.06V7l-.06-.23-.06-.23-.12-.18L467,6.28l-.53-.35-.7-.23h-1l-.47.11-.4.12-.35.18-.3.29-.17.35-.12.12V7.1l-.05.29-.06.23h.93m2.68,2.05-.05.23-.12.29-.41.41-.29.18L465,11h-.59l-.29-.06-.12-.12-.17-.11-.12-.12-.11-.35V9.78l.11-.23.12-.17.17-.12.23-.06.18-.06.24-.06.17-.05.41-.06.35-.06h.23l.23-.06.18-.06h.06l.12-.06.05-.06Z"/><polyline class="cls-9" points="473.88 11.65 472.6 11.65 470.79 8.67 470.03 9.44 470.03 11.65 469.04 11.65 469.04 3.66 470.03 3.66 470.03 8.33 472.48 5.81 473.77 5.81 471.49 7.97 473.88 11.65"/><path class="cls-9" d="M478.56,9.84l-.12.35-.12.18-.23.17-.18.18-.29.11-.23.12L477,11l-.41-.06-.35-.12-.47-.34-.23-.3-.12-.29-.12-.41V9h4.27l-.06-.36V8.33L479.49,8l-.12-.58-.23-.58L479,6.58l-.12-.18-.23-.23-.17-.12L478,5.81l-.58-.11h-.65l-.35.06-.29,0-.29.12-.23.12-.24.17-.17.18-.35.47-.12.23-.11.29-.12.23-.06.35-.06.24v.35l-.06.35.06.29v.35l.06.23.06.3.12.23.11.23.12.24L475,11l.35.35.7.35.59.12h.64l.46-.12H478l.12-.12.17-.06.12,0,.06-.06.29-.18L479,11l.18-.23.23-.47.12-.35.06-.12h-1m-3.22-1.57.06-.3.06-.35.18-.29.17-.23.23-.23.3-.18.29-.11.35-.06.41.06.34.11.24.18.23.23.12.23.12.29.12.35.05.3Z"/><polyline class="cls-9" points="480.6 11.83 479.84 11.83 482.58 3.48 483.28 3.48 480.6 11.83"/><path class="cls-9" d="M488.42,9.32l.76,2.33h1.22l-2.92-8h-1.16l-3,8h1.11l.82-2.33h3.21m-2.86-.94,1.28-3.56L488,8.38Z"/><rect x="490.98" y="8.09" width="2.74" height="0.93"/><polyline class="cls-9" points="499.91 5.99 499.86 5.81 499.8 5.58 499.68 5.23 499.44 4.94 499.21 4.7 498.63 4.47 498.22 4.42 497.87 4.36 497.64 4.36 497.06 4.47 496.76 4.59 496.47 4.82 496.29 5.06 496.18 5.17 496.12 5.35 496.06 5.58 496.06 5.81 496.12 6.05 496.18 6.22 496.29 6.4 496.53 6.63 496.88 6.75 497.06 6.75 499.33 7.33 500.03 7.57 500.32 7.74 500.61 7.97 500.79 8.27 500.96 8.62 501.08 9.03 501.14 9.44 501.08 9.78 500.96 10.37 500.79 10.6 500.67 10.83 500.5 11.01 500.32 11.24 500.03 11.36 499.56 11.59 499.1 11.71 498.51 11.83 497.52 11.83 497.06 11.77 496.7 11.71 496.35 11.59 495.89 11.36 495.71 11.24 495.59 11.13 495.36 10.83 495.19 10.6 495.01 10.37 494.89 9.9 494.84 9.61 494.78 9.32 494.78 9.03 495.77 9.03 495.83 9.32 495.83 9.55 495.89 9.78 496 9.96 496.06 10.13 496.18 10.31 496.53 10.54 496.82 10.72 497.23 10.83 497.58 10.89 497.99 10.95 498.28 10.95 498.98 10.83 499.33 10.72 499.62 10.49 499.86 10.25 499.91 10.13 500.03 9.96 500.03 9.32 499.97 9.03 499.91 8.85 499.68 8.67 499.5 8.56 499.21 8.44 498.86 8.33 498.34 8.21 496.76 7.8 496.53 7.74 495.94 7.51 495.71 7.33 495.48 7.1 495.25 6.75 495.13 6.63 495.13 6.4 495.07 6.17 495.07 5.47 495.19 5 495.3 4.82 495.42 4.59 495.54 4.42 495.71 4.24 495.83 4.06 496.06 3.89 496.53 3.66 496.82 3.6 497.11 3.48 498.28 3.48 498.75 3.54 499.1 3.6 499.44 3.77 499.74 3.89 499.97 4 500.14 4.24 500.38 4.42 500.56 4.59 500.67 4.82 500.73 5.06 500.79 5.23 500.91 5.64 500.91 5.99 499.91 5.99"/><polyline class="cls-9" points="503.53 11.65 502.48 11.65 502.48 3.66 503.53 3.66 503.53 7.51 507.38 3.66 508.9 3.66 505.57 6.87 509.02 11.65 507.62 11.65 504.82 7.62 503.53 8.85 503.53 11.65"/><rect x="510.07" y="3.66" width="1.11" height="7.99"/><path class="cls-9" d="M513,11.65h3.15l.53-.06.41-.06.41-.11.35-.18.29-.17.29-.24.23-.29.18-.29.23-.29.12-.29.12-.35.11-.41.12-.7V6.75l-.12-.41L519.41,6l-.18-.35-.12-.35-.35-.59-.23-.23L517.66,4l-.3-.12-.7-.12-.41,0H513v8m1.05-7.06h2.28l.29.06.47.11.18.12.23.12.35.35.23.46.18.24.06.23,0,.3.06.29.06.35V8l-.12.7,0,.24-.06.29-.18.29-.12.23-.11.18-.18.23-.52.36-.24.11-.46.12h-2.4Z"/><polyline class="cls-9" points="527.57 7.8 527.57 7.51 527.34 7.04 527.17 6.87 526.99 6.75 526.76 6.63 526.52 6.58 526.23 6.52 526 6.58 525.82 6.63 525.65 6.63 525.3 6.87 524.95 7.22 524.77 7.62 524.66 8.33 524.66 9.55 524.89 10.25 525.13 10.49 525.24 10.66 525.59 10.83 525.77 10.89 526.23 11.01 526.47 10.95 526.7 10.83 526.88 10.78 527.05 10.6 527.28 10.43 527.4 10.19 527.52 9.9 527.57 9.61 528.51 9.61 528.51 9.96 528.39 10.31 528.16 10.72 527.81 11.24 527.46 11.48 526.99 11.71 526.76 11.77 526.47 11.83 525.88 11.83 525.59 11.77 525.36 11.71 525.07 11.59 524.83 11.48 524.66 11.36 524.43 11.19 524.25 11.01 524.07 10.78 523.84 10.31 523.78 10.08 523.72 9.78 523.61 9.55 523.55 9.2 523.55 8.56 523.61 8.21 523.66 7.97 523.72 7.62 523.84 7.39 523.96 7.1 524.07 6.87 524.25 6.63 524.43 6.4 524.89 6.05 525.36 5.81 525.71 5.75 526 5.7 526.88 5.7 527.11 5.81 527.34 5.87 527.52 5.93 527.69 6.05 527.98 6.34 528.22 6.69 528.39 7.04 528.51 7.39 528.51 7.8 527.57 7.8"/><path class="cls-9" d="M529.21,8.73l.06.59.12.52.05.29.24.47.17.23L530,11l.17.23.23.12.24.17.29.12.58.12.35.06.36-.06.58-.12.29-.12.23-.17.24-.12.17-.23.18-.18.12-.23.17-.23.06-.24.11-.29.18-.52V8.21l-.18-.59-.11-.23-.06-.29-.17-.23-.12-.24-.18-.23-.17-.12-.24-.23-.23-.12-.29-.12-.58-.11h-.71l-.58.11-.29.12-.24.12-.23.23L530,6.4l-.18.23-.17.24-.12.23-.12.29-.05.23-.12.59-.06.52m1,0V8.44l.06-.35.12-.41.11-.35.24-.35.35-.23.11-.12.47-.11h.47l.23.06.18,0,.23.12L533,7l.24.35.17.35.06.41.12.35V9l-.12.41-.06.34-.17.35-.24.36-.23.23-.23.11-.18.06-.23.06h-.47l-.47-.12-.11-.11-.35-.23-.24-.36-.23-.69L530.2,9Z"/><polyline class="cls-9" points="540.41 11.65 539.48 11.65 539.48 8.09 539.42 7.74 539.36 7.39 539.3 7.1 539.19 6.92 539.02 6.75 538.78 6.63 538.55 6.58 538.2 6.52 537.73 6.63 537.44 6.75 537.21 6.92 537.03 7.16 536.86 7.51 536.74 7.74 536.74 7.97 536.68 8.21 536.68 11.65 535.69 11.65 535.69 5.81 536.62 5.81 536.62 6.63 537.21 6.05 537.44 5.93 538.02 5.7 538.78 5.7 539.07 5.75 539.42 5.87 539.72 6.05 539.89 6.17 540.13 6.52 540.24 6.69 540.36 6.87 540.36 7.1 540.41 7.39 540.41 11.65"/><polyline class="cls-9" points="543.1 6.63 543.1 10.72 543.22 10.78 543.27 10.83 543.98 10.83 543.98 11.65 543.86 11.65 543.74 11.71 542.93 11.71 542.69 11.59 542.46 11.53 542.22 11.19 542.16 11.01 542.11 10.72 542.11 6.63 541.29 6.63 541.29 5.81 542.11 5.81 542.11 4.24 543.1 4.24 543.1 5.81 543.98 5.81 543.98 6.63 543.1 6.63"/><polyline class="cls-9" points="546.07 11.65 545.08 11.65 545.08 5.81 546.02 5.81 546.02 6.81 546.37 6.34 546.72 5.99 547.18 5.75 547.42 5.7 547.95 5.7 547.95 6.75 547.24 6.75 546.95 6.87 546.72 6.98 546.48 7.16 546.31 7.39 546.19 7.68 546.07 8.27 546.07 11.65"/><path class="cls-9" d="M548.29,8.73l.06.59.12.52.12.29,0,.24.18.23.17.23.18.18.17.23.24.12.23.17.29.12.24.06.7.12.29-.06.35-.06.29-.06.23-.12.3-.17.17-.12.41-.41.17-.23.12-.23.12-.24.06-.29.11-.52.06-.59-.06-.52-.11-.59-.06-.23-.12-.29-.12-.23-.17-.24-.18-.23-.23-.12-.17-.23-.3-.12L552,5.81l-.29,0-.35-.06h-.64l-.35.06-.24,0-.29.12-.23.12-.24.23-.17.12-.35.47-.18.23,0,.29-.12.23-.12.59-.06.52m1.05,0V8.44l.06-.35.12-.41.12-.35.23-.35.11-.11.36-.24.23,0,.18-.06h.52l.23.06.18,0,.23.12.23.23.24.35.18.35.11.41v.35l.06.29-.06.3v.41l-.11.34-.18.35-.24.36-.23.23-.23.11-.18.06-.23.06h-.52l-.18-.06-.23-.06L550,10.6l-.11-.11-.23-.36-.24-.69L549.34,9Z"/><rect x="554.83" y="3.66" width="0.99" height="7.99"/><polyline class="cls-9" points="130.26 76.78 124.36 76.78 124.36 68.79 130.2 68.79 130.2 69.78 125.41 69.78 125.41 72.23 129.79 72.23 129.79 73.16 125.41 73.16 125.41 75.85 130.26 75.85 130.26 76.78"/><polyline class="cls-9" points="132.88 76.78 131.78 76.78 131.78 68.79 137.32 68.79 137.32 69.78 132.88 69.78 132.88 72.23 136.74 72.23 136.74 73.16 132.88 73.16 132.88 76.78"/><rect x="138.6" y="68.79" width="1.11" height="8"/><polyline class="cls-9" points="146.37 71.18 146.31 70.95 146.25 70.71 146.25 70.54 146.13 70.36 145.9 70.07 145.66 69.84 145.08 69.6 144.67 69.54 144.38 69.49 143.51 69.66 143.22 69.78 142.92 69.95 142.75 70.19 142.63 70.3 142.63 70.54 142.57 70.71 142.52 70.95 142.57 71.18 142.63 71.35 142.75 71.53 142.98 71.76 143.51 71.94 145.78 72.46 146.13 72.58 146.48 72.75 146.77 72.87 147.07 73.1 147.3 73.45 147.48 73.75 147.53 74.15 147.59 74.56 147.59 74.92 147.48 75.26 147.42 75.5 147.3 75.73 147.13 76.02 146.95 76.2 146.72 76.37 146.54 76.49 146.02 76.72 145.55 76.9 144.97 76.95 143.51 76.95 143.1 76.84 142.81 76.72 142.57 76.61 142.4 76.49 142.16 76.37 141.81 76.02 141.64 75.73 141.47 75.5 141.41 75.26 141.29 75.03 141.29 74.74 141.23 74.5 141.23 74.21 142.28 74.21 142.28 74.68 142.4 74.92 142.46 75.15 142.52 75.26 142.63 75.44 142.98 75.67 143.27 75.85 143.68 76.02 144.09 76.08 144.73 76.08 145.43 75.96 145.78 75.85 146.07 75.61 146.31 75.38 146.37 75.26 146.48 75.15 146.48 74.92 146.54 74.74 146.48 74.45 146.48 74.21 146.37 73.98 146.19 73.81 145.96 73.69 145.66 73.57 145.32 73.45 144.79 73.34 143.22 72.93 142.75 72.81 142.16 72.52 141.69 71.94 141.64 71.76 141.52 71.29 141.52 71.06 141.58 70.59 141.69 70.19 141.75 69.95 141.87 69.72 141.99 69.54 142.52 69.02 142.98 68.79 143.27 68.73 143.57 68.61 144.73 68.61 145.2 68.67 145.9 68.9 146.19 69.02 146.66 69.37 147.01 69.72 147.13 69.95 147.18 70.19 147.24 70.36 147.36 70.77 147.36 71.18 146.37 71.18"/><polyline class="cls-9" points="135.51 87.81 136.33 87.81 136.33 90.2 138.72 90.2 138.72 91.08 136.33 91.08 136.33 93.47 135.51 93.47 135.51 91.08 133.12 91.08 133.12 90.2 135.51 90.2 135.51 87.81"/><path class="cls-9" d="M125.41,106.78h2.52l.34-.06.24-.06.29-.06.23-.11.24-.06.23-.18.29-.29.23-.35.18-.41.12-.41v-.64l-.12-.46-.06-.18-.06-.23-.23-.35-.17-.18-.18-.12-.12-.11-.46-.23-.18-.06-.23-.06h-4.15v7.94h1v-3.33m0-3.74h2.52l.34.12.24.06.23.11.18.18.17.23.06.3.06.34-.12.71-.11.23-.18.17-.29.18-.24.12h-2.86Z"/><polyline class="cls-9" points="132.88 110.11 131.78 110.11 131.78 102.17 137.32 102.17 137.32 103.1 132.88 103.1 132.88 105.55 136.74 105.55 136.74 106.49 132.88 106.49 132.88 110.11"/><path class="cls-9" d="M138.49,110.11h3.67l.82-.24.35-.17.29-.18.29-.23.24-.23.23-.36.18-.29.23-.7.12-.29.17-.7v-1.17l-.06-.35-.06-.41-.23-.69-.17-.36-.18-.23-.17-.29-.47-.47-.29-.17-.35-.18-.29-.11-.35-.12h-4v7.94M139.6,103h2.27l.47.12.47.23.35.24.35.35.23.46.06.3.06.35.11.29v1.4l-.11.35v.29l-.12.29-.35.7-.18.18-.23.11-.17.18-.18.12-.23.06-.24.11H139.6Z"/><polyline class="cls-9" points="191.25 76.78 185.35 76.78 185.35 68.79 191.13 68.79 191.13 69.78 186.4 69.78 186.4 72.23 190.78 72.23 190.78 73.16 186.4 73.16 186.4 75.85 191.25 75.85 191.25 76.78"/><polyline class="cls-9" points="193.81 76.78 192.76 76.78 192.76 68.79 198.25 68.79 198.25 69.78 193.81 69.78 193.81 72.23 197.72 72.23 197.72 73.16 193.81 73.16 193.81 76.78"/><rect x="199.59" y="68.79" width="1.05" height="8"/><polyline class="cls-9" points="207.29 71.18 207.29 70.71 207.18 70.54 207.12 70.36 206.94 70.07 206.65 69.84 206.36 69.72 206.01 69.6 205.72 69.54 205.37 69.49 204.49 69.66 204.14 69.78 203.91 69.95 203.68 70.19 203.62 70.3 203.56 70.54 203.56 71.18 203.68 71.53 203.79 71.65 203.97 71.76 204.14 71.82 204.26 71.88 204.49 71.94 206.71 72.46 207.12 72.58 207.47 72.75 207.76 72.87 208 73.1 208.28 73.45 208.4 73.75 208.52 74.15 208.58 74.56 208.52 74.92 208.52 75.26 208.28 75.73 208.11 76.02 207.94 76.2 207.7 76.37 207.53 76.49 207.06 76.72 206.48 76.9 205.95 76.95 204.49 76.95 203.79 76.72 203.32 76.49 203.21 76.37 203.03 76.25 202.8 76.02 202.57 75.73 202.33 75.26 202.27 75.03 202.22 74.74 202.22 74.21 203.21 74.21 203.21 74.45 203.32 74.92 203.44 75.15 203.56 75.26 203.68 75.44 203.91 75.67 204.26 75.85 204.67 76.02 205.02 76.08 205.72 76.08 206.42 75.96 206.77 75.85 207.06 75.61 207.41 75.26 207.41 75.15 207.53 74.92 207.53 74.74 207.47 74.45 207.41 74.21 207.29 73.98 207.18 73.81 206.94 73.69 206.65 73.57 205.84 73.34 204.14 72.93 203.97 72.87 203.68 72.81 203.44 72.64 203.15 72.52 202.86 72.23 202.68 71.94 202.57 71.76 202.45 71.29 202.45 71.06 202.51 70.59 202.63 70.19 202.86 69.72 203.09 69.37 203.32 69.19 203.5 69.02 203.97 68.79 204.26 68.73 204.55 68.61 205.72 68.61 206.13 68.67 206.53 68.79 206.89 68.9 207.18 69.02 207.64 69.37 207.76 69.54 207.94 69.72 208.17 70.19 208.23 70.36 208.28 70.77 208.34 71.18 207.29 71.18"/><polyline class="cls-9" points="196.5 87.81 197.32 87.81 197.32 90.2 199.71 90.2 199.71 91.08 197.32 91.08 197.32 93.47 196.5 93.47 196.5 91.08 194.1 91.08 194.1 90.2 196.5 90.2 196.5 87.81"/><polyline class="cls-9" points="196.67 102.17 197.72 102.17 197.72 110.11 196.56 110.11 192.47 103.69 192.47 110.11 191.36 110.11 191.36 102.17 192.7 102.17 196.67 108.59 196.67 102.17"/><path class="cls-9" d="M199.47,110.11h3.68l.82-.24.29-.17.35-.18.29-.23.24-.23.23-.36.17-.29.12-.35.18-.35,0-.29.12-.7.06-.7v-.47l-.06-.35-.06-.41-.11-.35-.12-.34-.18-.36-.17-.23-.23-.29L205,103l-.29-.24-.29-.17-.24-.18-.7-.23h-4v7.94m1.05-7.07h2.34l.46.12.47.23.35.24.18.17.11.18.18.23.06.23.12.3.11.35v.29l.06.35v.7l-.06.35v.35l-.11.29-.06.29-.24.47-.17.23-.18.18-.17.11-.18.18-.23.12-.18.06-.23.11h-2.63Z"/><polyline class="cls-9" points="296.18 74.56 290.28 74.56 290.28 66.57 296.06 66.57 296.06 67.56 291.39 67.56 291.39 70.01 295.71 70.01 295.71 70.95 291.39 70.95 291.39 73.63 296.18 73.63 296.18 74.56"/><polyline class="cls-9" points="303.18 69.02 303.12 68.79 303.06 68.49 302.83 68.14 302.25 67.68 301.89 67.5 301.61 67.44 301.25 67.38 300.96 67.33 300.67 67.38 300.44 67.44 300.2 67.44 299.91 67.56 299.44 67.79 299.09 68.14 298.92 68.38 298.81 68.61 298.63 68.9 298.51 69.13 298.45 69.49 298.39 69.78 298.39 70.13 298.34 70.54 298.39 71.18 298.51 71.82 298.63 72.4 298.75 72.64 299.09 73.1 299.27 73.28 299.5 73.45 299.74 73.57 300.32 73.81 301.25 73.81 301.61 73.75 301.89 73.63 302.25 73.45 302.42 73.34 302.6 73.16 302.71 72.99 302.83 72.75 302.94 72.52 303.06 72.29 303.18 72 303.24 71.65 304.29 71.65 304.17 72.17 304.06 72.64 303.88 73.04 303.65 73.4 303.18 73.98 302.89 74.21 302.6 74.33 302.36 74.5 302.07 74.62 301.78 74.68 301.55 74.74 301.14 74.8 300.5 74.8 299.8 74.68 299.21 74.45 298.86 74.27 298.63 74.04 298.34 73.81 298.1 73.57 297.87 73.22 297.52 72.52 297.4 72.11 297.29 71.65 297.23 71.12 297.23 70.07 297.29 69.66 297.4 69.25 297.46 68.9 297.64 68.49 297.75 68.14 298.22 67.56 298.51 67.33 298.75 67.09 299.04 66.86 299.39 66.69 299.74 66.57 300.14 66.45 300.56 66.45 300.96 66.39 301.31 66.39 302.01 66.51 302.6 66.74 302.83 66.86 303.3 67.21 303.71 67.62 303.82 67.79 304.06 68.26 304.11 68.49 304.17 68.79 304.23 69.02 303.18 69.02"/><path class="cls-9" d="M310.07,72.23l.75,2.33H312l-2.86-8h-1.22l-3,8H306l.82-2.33h3.21m-2.92-.94,1.34-3.5,1.17,3.5Z"/><polyline class="cls-9" points="319.58 74.56 319.58 67.91 317.31 74.56 316.25 74.56 314.04 67.91 313.98 67.91 313.98 68.49 314.04 68.79 314.04 74.56 312.98 74.56 312.98 66.57 314.56 66.57 316.84 73.34 319.11 66.57 320.63 66.57 320.63 74.56 319.58 74.56"/><polyline class="cls-9" points="307.62 80.11 308.43 80.11 308.43 82.5 310.82 82.5 310.82 83.32 308.43 83.32 308.43 85.71 307.62 85.71 307.62 83.32 305.22 83.32 305.22 82.5 307.62 82.5 307.62 80.11"/><path class="cls-9" d="M303.3,95l-.12.35-.35.35-.17.23-.3.12-.23.06-.41.06L301,96l-.29-.17-.23-.24-.18-.29-.12-.29-.11-.41v-.41h4.2v-.76l-.06-.35-.06-.29-.12-.29-.05-.29-.18-.24-.11-.23-.18-.23-.35-.35-.47-.24-.58-.11h-.64l-.35.05-.29.06-.3.12-.23.12-.23.17-.41.41-.23.47-.12.29-.12.23-.12.35v.3l0,.28v.65l0,.35.06.23.06.29.47.94.23.17.18.18.7.35.23.06.35,0H302l.3,0,.23-.06h.18l.17-.12H303l.11-.12.12-.06.29-.17.24-.23.11-.24.18-.23.11-.23.12-.35V95h-.93m-3.21-1.57v-.3l.11-.35.12-.23.23-.29.24-.24.23-.17.35-.12.35-.06.41.06.29.12.29.17.24.24.11.29.12.23.12.35v.3Z"/><polyline class="cls-9" points="310.18 96.8 309.25 96.8 309.25 92.89 309.19 92.54 309.13 92.31 308.96 92.07 308.84 91.9 308.61 91.78 308.02 91.66 307.56 91.78 307.27 91.9 307.03 92.07 306.8 92.31 306.63 92.65 306.45 93.36 306.45 96.8 305.52 96.8 305.52 90.96 306.45 90.96 306.45 91.78 306.68 91.55 306.8 91.37 307.03 91.2 307.27 91.08 307.85 90.84 308.49 90.84 308.84 90.9 309.25 91.02 309.54 91.2 309.71 91.31 310.07 91.84 310.13 92.01 310.18 92.31 310.18 96.8"/><path class="cls-9" d="M316.49,91h-.94v.88l-.05-.18-.18-.11-.18-.18L315,91.2l-.24-.12L314.5,91l-.35-.11h-.64l-.23.05L313,91l-.23.12-.17.12-.24.11-.35.35-.11.24-.12.17-.12.24-.11.29-.06.29-.06.23v1.17l.12.52.06.3.05.23.12.29.35.47.12.23.23.18.29.11.23.18.3.06.29.11h.64l.29,0,.18-.06.23-.12.35-.23.24-.35V97l-.06.36-.18.52-.23.23-.24.12-.11.12-.29.06-.24.05h-.58l-.35-.11L313,98.2l-.17-.12-.18-.23-.11-.35h-.93l.05.29.12.47.23.35.35.23.12.12.41.17.35.06.29.06h.76l.41-.12.7-.23.46-.35.12-.23.18-.24.23-.46v-.24l.12-.29V91m-4.09,2.92v-.29l.06-.35v-.35l.17-.35.12-.17.06-.18.29-.29.35-.12.23-.06.3-.06.7.18.11.11.18.12.23.35.06.18.18.41.06.35.05.46v.65l-.05.23v.23l-.12.18-.18.35-.17.29-.3.17-.23.12-.29.06-.23.06h-.18l-.23-.06-.12-.06-.17-.12-.18,0-.23-.24-.12-.17-.17-.29-.12-.41-.06-.41Z"/><polyline class="cls-9" points="292.15 107.89 291.16 107.89 289.46 102.11 290.52 102.11 291.63 106.66 291.68 106.66 292.79 102.11 293.9 102.11 295.01 106.66 295.07 106.66 296.23 102.11 297.17 102.11 295.48 107.89 294.48 107.89 293.32 103.39 292.15 107.89"/><path class="cls-9" d="M298.92,103.86l.06-.17v-.18l.23-.35.18-.17.17-.12.35-.12h.7l.29.06.24.06.17.12.12.17.12.12.06.23V104l-.06.11-.18.18h-.17l-.06,0-1.64.18-.29.06-.23.06-.23.11-.18.06-.35.24-.12.17-.12.12-.11.29-.12.23v.88l.12.29.17.29.18.24.29.23.7.23H300l.35-.11.35-.06.23-.12.24-.17.23-.12.12-.18.17-.17v.17l.06.18.06.12.23.23.18.12.23.06H303L303,108h.18l.06-.06v-.7l-.06,0h-.41l-.06,0v-.06h0l-.06-.06v-3.79l-.06-.24-.12-.17-.12-.24-.11-.11-.18-.12-.12-.11-.23-.12-.35-.12L301,102l-.29,0h-.76l-.46.11-.36.12-.52.35-.12.11-.23.36-.06.17-.12.47v.23h.88m2.69,2v.3l-.12.23-.47.47-.23.11-.29.12-.36.11h-.58l-.23,0-.18-.06L299,107l-.06-.11-.06-.24-.11-.17v-.24l.05-.23.06-.23.53-.35.23-.06.18-.06H300l.41-.06.29-.06H301l.18-.11h.17l.12-.06.06-.06h.06Z"/><polyline class="cls-9" points="305.34 107.89 304.41 107.89 304.41 102.11 305.28 102.11 305.28 103.04 305.34 103.04 305.52 102.81 305.63 102.63 305.81 102.4 305.98 102.23 306.21 102.11 306.45 102.05 306.68 101.94 307.21 101.94 307.21 102.99 306.51 102.99 306.21 103.1 305.75 103.45 305.63 103.69 305.46 103.92 305.34 104.21 305.34 107.89"/><polyline class="cls-9" points="312.69 107.89 311.7 107.89 311.7 103.98 311.64 103.69 311.53 103.39 311.41 103.22 311.29 102.99 311.06 102.87 310.77 102.81 310.24 102.81 309.95 102.87 309.71 102.99 309.48 103.16 309.25 103.45 309.07 103.74 308.96 104.21 308.96 104.44 308.9 104.74 308.9 107.89 307.96 107.89 307.96 102.11 308.84 102.11 308.84 102.93 308.9 102.93 308.96 102.75 309.13 102.63 309.25 102.46 309.48 102.29 309.95 102.05 310.3 101.94 311 101.94 311.7 102.17 311.99 102.29 312.11 102.46 312.23 102.58 312.46 102.93 312.58 103.16 312.63 103.39 312.63 103.63 312.69 103.98 312.69 107.89"/><path class="cls-9" d="M315.14,100v1.11h-1V100Zm0,2.16v5.78h-1v-5.78Z"/><polyline class="cls-9" points="321.33 107.89 320.34 107.89 320.34 103.98 320.22 103.39 320.11 103.22 319.93 102.99 319.69 102.87 319.41 102.81 318.88 102.81 318.64 102.87 318.36 102.99 318.12 103.16 317.89 103.45 317.71 103.74 317.65 103.98 317.54 104.44 317.54 107.89 316.6 107.89 316.6 102.11 317.54 102.11 317.54 102.93 317.65 102.75 317.77 102.63 317.89 102.46 318.12 102.29 318.36 102.17 318.94 101.94 319.64 101.94 320.34 102.17 320.63 102.29 320.92 102.58 321.16 102.93 321.21 103.16 321.27 103.39 321.27 103.63 321.33 103.98 321.33 107.89"/><path class="cls-9" d="M327.57,102.11h-.93V103l-.06-.18-.12-.18-.34-.34-.24-.12-.29-.12-.35-.11h-.58l-.59.11-.17.12-.47.23-.35.35-.47.94-.06.29-.05.23v1.17l.11.52.06.3.06.29.12.23.17.29.18.23.12.18.29.18.23.17.23.12.29.12.3,0h.64l.29,0,.23-.06.53-.35.23-.36v.88l-.06.29-.11.41-.06.12-.23.23-.35.23-.24.06-.29.06h-.76l-.17-.12-.24-.11-.17-.12-.18-.23-.06-.29h-1l.06.29.06.23.06.18.23.35.18.17.17.12.18.06.35.17.35.06.58.12.47-.06.41-.12.35-.06.58-.29.23-.23.12-.24.18-.23.23-.47.11-.46v-6.13M323.49,105v-.29l.06-.35.06-.35.11-.35.24-.35.23-.24.17-.11.18-.06.23-.06h.59l.17.06.24.12.17.05.12.18.17.11.06.18.12.18.11.41.06.4.06.41v.64l-.06.24V106l-.29.58-.17.24-.3.17-.23.12-.29.11h-.41l-.23,0-.12-.06-.35-.12-.23-.23-.06-.18-.18-.35-.11-.35-.12-.46Z"/><polyline class="cls-9" points="298.98 133.51 293.08 133.51 293.08 125.51 298.92 125.51 298.92 126.45 294.19 126.45 294.19 128.9 298.57 128.9 298.57 129.89 294.19 129.89 294.19 132.52 298.98 132.52 298.98 133.51"/><polyline class="cls-9" points="305.98 127.9 305.92 127.67 305.86 127.44 305.75 127.26 305.63 127.03 305.34 126.79 305.05 126.5 304.76 126.39 304.41 126.27 303.24 126.27 303 126.39 302.71 126.45 302.54 126.56 302.31 126.68 302.13 126.85 301.89 127.03 301.72 127.26 301.49 127.73 301.25 128.31 301.19 128.66 301.14 129.07 301.14 129.42 301.19 130.12 301.25 130.76 301.37 131 301.49 131.29 301.72 131.75 301.89 131.99 302.13 132.22 302.31 132.34 302.54 132.46 303.12 132.69 303.41 132.69 303.82 132.75 304.06 132.69 304.41 132.69 304.76 132.58 305.05 132.34 305.22 132.22 305.34 132.05 305.69 131.7 305.81 131.47 305.92 131.17 305.98 130.88 306.1 130.53 307.15 130.53 307.03 131.12 306.68 131.93 306.45 132.34 306.21 132.63 305.98 132.87 305.75 133.04 305.46 133.28 304.87 133.51 304.41 133.62 303.94 133.68 303.3 133.68 302.6 133.57 302.01 133.33 301.72 133.16 301.14 132.69 300.9 132.46 300.67 132.11 300.56 131.81 300.32 131.41 300.2 131 300.14 130.53 300.09 130 300.09 128.61 300.2 128.14 300.32 127.73 300.44 127.38 300.61 127.03 300.79 126.74 301.25 126.15 301.55 125.92 302.25 125.57 302.94 125.34 303.3 125.34 303.77 125.28 304.17 125.34 304.52 125.34 304.81 125.45 305.11 125.51 305.4 125.63 305.69 125.8 305.92 125.92 306.1 126.09 306.33 126.27 306.45 126.5 306.63 126.68 306.86 127.15 306.91 127.38 307.03 127.67 307.03 127.9 305.98 127.9"/><path class="cls-9" d="M312.87,131.17l.81,2.34h1.17l-2.92-8h-1.22l-3,8h1.11l.87-2.34h3.16m-2.86-1,1.28-3.5,1.17,3.5Z"/><polyline class="cls-9" points="322.38 133.51 322.38 126.79 320.16 133.51 319.11 133.51 316.84 126.79 316.84 133.51 315.79 133.51 315.79 125.51 317.31 125.51 319.58 132.22 319.64 132.22 321.91 125.51 323.43 125.51 323.43 133.51 322.38 133.51"/><polyline class="cls-9" points="307.32 144.54 308.14 144.54 308.14 146.93 310.54 146.93 310.54 147.75 308.14 147.75 308.14 150.14 307.32 150.14 307.32 147.75 304.93 147.75 304.93 146.93 307.32 146.93 307.32 144.54"/><polyline class="cls-9" points="291.63 161.17 291.63 160.94 291.57 160.76 291.51 160.53 291.39 160.41 291.21 160.12 290.98 159.89 290.63 159.71 290.34 159.59 289.99 159.59 289.64 159.54 289.35 159.54 288.77 159.65 288.47 159.77 288.24 159.95 288.01 160.18 287.83 160.7 287.83 160.94 287.89 161.17 287.89 161.4 288.24 161.75 288.41 161.87 288.59 161.87 288.77 161.93 291.04 162.45 291.74 162.69 292.09 162.92 292.32 163.15 292.56 163.45 292.68 163.8 292.79 164.15 292.85 164.62 292.79 164.96 292.79 165.25 292.68 165.49 292.56 165.78 292.44 165.95 292.04 166.37 291.8 166.54 291.33 166.72 290.81 166.89 290.28 167 289.23 167 288.77 166.95 288.41 166.83 288.13 166.78 287.89 166.6 287.66 166.48 287.31 166.25 287.07 166.01 286.9 165.78 286.78 165.55 286.66 165.25 286.61 165.02 286.55 164.79 286.55 164.2 287.54 164.2 287.54 164.5 287.6 164.73 287.66 164.9 287.71 165.14 287.83 165.31 288.24 165.72 288.59 165.84 288.94 166.01 289.35 166.07 290.4 166.07 290.75 165.95 291.04 165.84 291.39 165.66 291.63 165.43 291.68 165.31 291.8 164.96 291.8 164.44 291.74 164.2 291.63 164.03 291.27 163.68 290.57 163.45 290.11 163.33 288.47 162.98 288.24 162.92 288.01 162.81 287.71 162.69 287.42 162.45 287.19 162.22 286.96 161.93 286.9 161.75 286.84 161.52 286.78 161.34 286.78 160.65 286.9 160.18 287.02 159.95 287.25 159.59 287.42 159.36 287.6 159.24 287.83 159.07 288.01 158.95 288.59 158.72 288.82 158.66 289.17 158.6 290.05 158.6 290.46 158.72 290.87 158.78 291.16 158.9 291.51 159.01 291.74 159.19 291.92 159.36 292.09 159.59 292.27 159.77 292.32 159.95 292.44 160.18 292.5 160.41 292.56 160.76 292.62 161.17 291.63 161.17"/><polyline class="cls-9" points="297.75 160.99 298.81 160.99 298.57 161.7 298.28 162.4 298.04 163.09 297.75 163.85 297.29 165.25 296.99 165.95 296.41 167.47 296.18 168.06 295.94 168.53 295.71 168.81 295.59 168.93 295.48 168.99 295.36 169.11 295.24 169.11 294.89 169.16 294.25 169.16 294.19 169.11 294.02 169.11 294.02 168.17 294.07 168.23 294.13 168.23 294.19 168.29 294.95 168.29 295.07 168.17 295.13 168.06 295.24 167.88 295.36 167.65 295.48 167.36 295.65 166.95 293.49 160.99 294.6 160.99 296.18 165.72 297.75 160.99"/><polyline class="cls-9" points="302.94 162.63 302.94 162.45 302.89 162.34 302.83 162.16 302.71 161.99 302.54 161.87 302.31 161.75 302.01 161.7 301.61 161.64 301.43 161.7 301.25 161.7 300.9 161.81 300.56 162.04 300.44 162.22 300.44 162.63 300.5 162.81 300.56 162.92 300.67 162.98 300.79 163.09 301.02 163.15 301.19 163.21 301.49 163.27 302.48 163.5 302.89 163.62 303.18 163.8 303.53 163.91 303.88 164.26 304 164.5 304.06 164.79 304.06 165.49 304 165.66 303.94 165.84 303.71 166.19 303.53 166.31 303.41 166.48 303.06 166.72 302.71 166.83 302.25 166.95 301.02 166.95 300.73 166.83 300.44 166.78 300.2 166.66 299.97 166.48 299.8 166.37 299.68 166.19 299.5 165.9 299.39 165.55 299.33 165.25 299.27 164.9 300.2 164.9 300.26 165.14 300.38 165.49 300.5 165.72 300.67 165.84 300.96 166.01 301.31 166.07 301.78 166.13 302.01 166.07 302.31 166.07 302.48 166.01 302.71 165.9 302.89 165.78 303 165.61 303.06 165.43 303.12 165.2 303.06 165.02 303.06 164.9 302.94 164.79 302.83 164.67 302.48 164.5 302.25 164.44 301.95 164.38 300.56 164.03 300.26 163.91 300.09 163.8 299.86 163.62 299.68 163.45 299.56 163.21 299.5 162.98 299.44 162.69 299.5 162.45 299.5 162.22 299.56 162.04 299.68 161.87 299.74 161.7 299.86 161.52 300.03 161.4 300.14 161.29 300.5 161.05 300.85 160.94 301.66 160.82 302.07 160.82 302.36 160.88 302.66 160.99 302.89 161.05 303.12 161.17 303.41 161.46 303.53 161.64 303.77 161.93 303.82 162.22 303.88 162.45 303.94 162.63 302.94 162.63"/><polyline class="cls-9" points="306.45 161.81 306.45 165.84 306.57 165.95 306.63 165.95 306.68 166.01 307.32 166.01 307.32 166.83 306.8 166.83 306.68 166.89 306.63 166.89 306.27 166.83 305.81 166.72 305.63 166.54 305.57 166.31 305.52 166.13 305.46 165.9 305.46 161.81 304.64 161.81 304.64 160.99 305.46 160.99 305.46 159.36 306.45 159.36 306.45 160.99 307.32 160.99 307.32 161.81 306.45 161.81"/><path class="cls-9" d="M312.23,165v.12l-.12.23-.12.18-.17.17-.18.12-.23.17-.35.06-.29.06-.41-.06L310,166l-.3-.11-.23-.23-.17-.24-.12-.35-.06-.35-.06-.47h4.27v-.4l-.06-.35-.12-.58-.06-.36-.12-.29-.11-.23-.35-.47-.18-.17-.23-.18-.47-.23-.23-.06-.29-.06h-.7l-.3.06-.29.11-.23.06-.29.18-.47.35-.12.18-.23.23-.11.23-.12.29-.06.3-.06.29-.12.29v1l.06.29.06.29.06.3.06.23.12.23.17.23.17.18.12.18.47.35.23.12.23.05.3.12h1.16l.24-.06.52-.17.24-.12.23-.23.17-.24.24-.18.11-.23.12-.23.06-.23.06-.12V165h-1m-3.16-1.57.06-.35.06-.29.18-.36.17-.23.23-.23.59-.23.29-.06.41.06.35.11.29.12.35.46.12.36.06.29.06.35Z"/><polyline class="cls-9" points="314.5 160.99 315.38 160.99 315.38 161.81 315.44 161.81 315.5 161.7 315.61 161.52 315.79 161.4 315.96 161.23 316.19 161.05 316.49 160.94 317.19 160.82 317.54 160.88 317.83 160.94 318.3 161.17 318.53 161.52 318.64 161.64 318.7 161.75 319.23 161.23 319.93 160.88 320.22 160.82 320.75 160.82 321.04 160.88 321.33 161.05 321.62 161.17 321.8 161.29 322.03 161.64 322.09 161.75 322.15 161.99 322.27 162.22 322.27 166.83 321.27 166.83 321.27 162.45 321.16 162.28 321.1 162.1 320.92 161.93 320.75 161.81 320.51 161.75 320.22 161.7 319.99 161.75 319.69 161.87 319.46 161.99 319.23 162.22 319 162.69 318.88 162.98 318.88 166.83 317.89 166.83 317.89 162.57 317.71 162.04 317.59 161.93 317.42 161.81 317.25 161.75 316.95 161.7 316.78 161.75 316.49 161.75 316.25 161.87 315.79 162.34 315.61 162.69 315.55 162.87 315.5 163.09 315.5 163.33 315.44 163.62 315.44 166.83 314.5 166.83 314.5 160.99"/><polyline class="cls-9" points="327.05 162.63 326.99 162.45 326.93 162.34 326.93 162.16 326.82 161.99 326.35 161.75 326.06 161.7 325.65 161.64 325.53 161.7 325.36 161.7 325.13 161.75 324.95 161.81 324.77 161.93 324.66 162.04 324.54 162.22 324.48 162.45 324.54 162.63 324.54 162.81 324.71 162.98 324.89 163.09 325.24 163.21 325.53 163.27 326.52 163.5 326.93 163.62 327.28 163.8 327.57 163.91 327.81 164.09 327.93 164.26 328.04 164.5 328.16 164.79 328.16 165.25 328.1 165.49 328.04 165.66 327.98 165.84 327.93 166.01 327.81 166.19 327.63 166.31 327.52 166.48 327.17 166.72 326.35 166.95 325.13 166.95 324.77 166.83 324.54 166.78 324.31 166.66 324.07 166.48 323.9 166.37 323.78 166.19 323.61 165.9 323.43 165.55 323.37 165.25 323.32 164.9 324.31 164.9 324.31 165.14 324.42 165.49 324.54 165.72 324.77 165.84 325.01 166.01 325.41 166.07 325.88 166.13 326.12 166.07 326.35 166.07 326.58 166.01 326.93 165.78 327.17 165.43 327.23 165.2 327.17 165.02 327.11 164.9 327.05 164.79 326.93 164.67 326.76 164.62 326.58 164.5 326.35 164.44 326 164.38 324.89 164.09 324.6 164.03 324.31 163.91 324.13 163.8 323.78 163.45 323.66 163.21 323.61 162.98 323.55 162.69 323.61 162.45 323.61 162.22 323.66 162.04 323.72 161.87 323.96 161.52 324.19 161.29 324.54 161.05 324.89 160.94 325.3 160.88 325.77 160.82 326.12 160.82 326.46 160.88 326.7 160.99 326.93 161.05 327.23 161.17 327.34 161.34 327.52 161.46 327.63 161.64 327.81 161.93 327.93 162.22 327.93 162.45 327.98 162.63 327.05 162.63"/><polyline class="cls-9" points="405.48 76.78 399.59 76.78 399.59 68.79 405.43 68.79 405.43 69.78 400.7 69.78 400.7 72.23 405.08 72.23 405.08 73.16 400.7 73.16 400.7 75.85 405.48 75.85 405.48 76.78"/><polyline class="cls-9" points="408.11 76.78 407.06 76.78 407.06 68.79 412.55 68.79 412.55 69.78 408.11 69.78 408.11 72.23 412.02 72.23 412.02 73.16 408.11 73.16 408.11 76.78"/><rect x="413.89" y="68.79" width="1.05" height="8"/><polyline class="cls-9" points="421.59 71.18 421.59 70.95 421.54 70.71 421.42 70.36 421.18 70.07 420.95 69.84 420.66 69.72 420.31 69.6 419.61 69.49 419.38 69.54 419.08 69.6 418.73 69.66 418.44 69.78 418.21 69.95 418.04 70.19 417.92 70.3 417.86 70.54 417.8 70.71 417.8 71.18 417.92 71.35 417.98 71.53 418.09 71.65 418.27 71.76 418.38 71.82 418.73 71.94 421.07 72.46 421.42 72.58 421.77 72.75 422.06 72.87 422.35 73.1 422.53 73.45 422.7 73.75 422.82 74.15 422.88 74.56 422.82 74.92 422.76 75.26 422.53 75.73 422.35 76.02 422.23 76.2 422 76.37 421.3 76.72 420.78 76.9 420.25 76.95 418.73 76.95 418.38 76.84 417.8 76.61 417.45 76.37 417.33 76.25 417.04 76.02 416.93 75.73 416.75 75.5 416.63 75.26 416.57 75.03 416.52 74.74 416.52 74.5 416.46 74.21 417.51 74.21 417.51 74.45 417.57 74.68 417.68 75.15 417.8 75.26 417.92 75.44 418.04 75.56 418.21 75.67 418.91 76.02 419.32 76.08 420.02 76.08 420.72 75.96 421.07 75.85 421.36 75.61 421.59 75.38 421.65 75.26 421.77 75.15 421.77 74.45 421.71 74.21 421.59 73.98 421.42 73.81 420.95 73.57 420.54 73.45 418.44 72.93 418.27 72.87 417.98 72.81 417.68 72.64 417.45 72.52 417.16 72.23 416.93 71.94 416.87 71.76 416.81 71.53 416.81 71.29 416.75 71.06 416.81 70.59 416.93 70.19 416.98 69.95 417.1 69.72 417.45 69.37 417.57 69.19 417.8 69.02 418.27 68.79 418.5 68.73 418.85 68.61 420.02 68.61 420.43 68.67 420.78 68.79 421.18 68.9 421.42 69.02 421.71 69.19 421.89 69.37 422.12 69.54 422.23 69.72 422.35 69.95 422.41 70.19 422.47 70.36 422.59 70.77 422.59 71.18 421.59 71.18"/><polyline class="cls-9" points="410.8 87.81 411.61 87.81 411.61 90.2 414.01 90.2 414.01 91.08 411.61 91.08 411.61 93.47 410.8 93.47 410.8 91.08 408.4 91.08 408.4 90.2 410.8 90.2 410.8 87.81"/><polyline class="cls-9" points="407.88 102.17 408.93 102.17 408.93 110.11 407.7 110.11 403.68 103.69 403.68 110.11 402.57 110.11 402.57 102.17 403.91 102.17 407.88 108.59 407.88 102.17"/><path class="cls-9" d="M410.68,110.11h3.62l.47-.12.35-.12.4-.17.3-.18.29-.23.23-.23.23-.36.12-.29.18-.35.11-.35.12-.29.11-.7.06-.7v-.47l-.11-.35v-.41l-.23-.69-.18-.36-.18-.23-.23-.29-.46-.47-.24-.17-.35-.18-.29-.11-.35-.12h-4v7.94m1.05-7.07h2.34l.46.12.47.23.35.24.17.17.12.18.24.46.11.3.06.35.06.29v.35l.05.35-.05.35v.35l-.06.35-.06.29-.11.29-.36.7-.17.18-.18.11-.17.18-.23.12-.18.06-.23.11h-2.63Z"/><polyline class="cls-9" points="466.59 76.78 460.75 76.78 460.75 68.79 466.53 68.79 466.53 69.78 461.81 69.78 461.81 72.23 466.18 72.23 466.18 73.16 461.81 73.16 461.81 75.85 466.59 75.85 466.59 76.78"/><polyline class="cls-9" points="469.16 76.78 468.11 76.78 468.11 68.79 473.65 68.79 473.65 69.78 469.16 69.78 469.16 72.23 473.13 72.23 473.13 73.16 469.16 73.16 469.16 76.78"/><rect x="474.99" y="68.79" width="1.05" height="8"/><polyline class="cls-9" points="482.69 71.18 482.69 70.95 482.64 70.71 482.58 70.54 482.46 70.36 482.29 70.07 482 69.84 481.41 69.6 480.71 69.49 479.84 69.66 479.55 69.78 479.31 69.95 479.08 70.19 479.02 70.3 478.96 70.54 478.9 70.71 478.9 70.95 478.96 71.18 478.96 71.35 479.08 71.53 479.31 71.76 479.84 71.94 482.11 72.46 482.46 72.58 482.81 72.75 483.16 72.87 483.4 73.1 483.63 73.45 483.75 73.75 483.86 74.15 483.92 74.56 483.86 74.92 483.86 75.26 483.63 75.73 483.52 76.02 483.28 76.2 483.11 76.37 482.41 76.72 481.88 76.9 481.36 76.95 479.84 76.95 479.49 76.84 479.19 76.72 478.73 76.49 478.38 76.25 478.14 76.02 477.97 75.73 477.73 75.26 477.68 75.03 477.62 74.74 477.62 74.21 478.61 74.21 478.61 74.45 478.67 74.68 478.73 74.92 478.79 75.15 478.9 75.26 479.02 75.44 479.19 75.56 479.31 75.67 480.01 76.02 480.42 76.08 481.12 76.08 481.82 75.96 482.11 75.85 482.46 75.61 482.69 75.38 482.81 75.15 482.87 74.92 482.87 74.45 482.81 74.21 482.69 73.98 482.52 73.81 482.29 73.69 482 73.57 481.64 73.45 479.08 72.81 478.79 72.64 478.5 72.52 478.03 71.94 477.97 71.76 477.85 71.29 477.85 70.59 477.97 70.19 478.2 69.72 478.32 69.54 478.5 69.37 478.67 69.19 478.9 69.02 479.08 68.9 479.37 68.79 479.66 68.73 479.89 68.61 481.12 68.61 481.53 68.67 481.94 68.79 482.23 68.9 482.58 69.02 482.81 69.19 483.34 69.72 483.4 69.95 483.52 70.19 483.57 70.36 483.63 70.77 483.69 71.18 482.69 71.18"/><polyline class="cls-9" points="471.84 87.81 472.66 87.81 472.66 90.2 475.11 90.2 475.11 91.08 472.66 91.08 472.66 93.47 471.84 93.47 471.84 91.08 469.45 91.08 469.45 90.2 471.84 90.2 471.84 87.81"/><path class="cls-9" d="M464.9,106.78h2.45l.35-.06.29-.06.23-.06.24-.11.23-.06.23-.18.29-.29.24-.35.18-.41.11-.41.06-.41-.06-.23v-.23l-.06-.23-.11-.18-.06-.23-.35-.53-.24-.12-.11-.11-.24-.12-.17-.11-.47-.12h-4.14v7.94h1.11v-3.33m0-3.74h2.45l.35.12.29.06.23.11.18.18.12.23.11.3v.7l-.11.35-.12.23-.18.17-.23.18-.29.12h-2.8Z"/><polyline class="cls-9" points="472.31 110.11 471.2 110.11 471.2 102.17 476.74 102.17 476.74 103.1 472.31 103.1 472.31 105.55 476.16 105.55 476.16 106.49 472.31 106.49 472.31 110.11"/><path class="cls-9" d="M478,110.11h3.62l.47-.12.35-.12.34-.17.3-.18.58-.46.18-.36.23-.29.23-.7.12-.29.12-.7V105.2l-.12-.41-.35-1.05-.18-.23-.23-.29-.47-.47-.58-.35-.35-.11-.29-.12h-4v7.94m1-7.07h2.28l.29.06.23.06.18.12.46.23.12.12.23.17.12.18.12.23.11.23.12.3.06.35.06.29v1.4l-.06.35-.06.29-.12.29-.11.24-.12.23-.12.23-.17.18-.18.11-.17.18-.23.12-.24.06-.23.11H479Z"/><polyline class="cls-9" points="527.57 78.3 531.66 78.3 531.66 79.23 526.52 79.23 526.52 71.24 527.57 71.24 527.57 78.3"/><polyline class="cls-9" points="532.01 71.24 538.49 71.24 538.49 72.17 535.75 72.17 535.75 79.23 534.7 79.23 534.7 72.17 532.01 72.17 532.01 71.24"/><polyline class="cls-9" points="529.03 84.78 528.98 84.49 528.86 84.31 528.74 84.08 528.63 83.9 528.39 83.61 528.1 83.38 527.75 83.26 527.46 83.14 527.11 83.08 526.52 83.08 526.23 83.14 526 83.2 525.77 83.32 525.53 83.38 525.36 83.55 525.13 83.73 524.77 84.08 524.66 84.31 524.48 84.6 524.43 84.89 524.31 85.19 524.25 85.54 524.19 85.88 524.19 86.94 524.31 87.58 524.43 87.87 524.48 88.16 524.66 88.4 524.77 88.63 524.89 88.8 525.13 89.04 525.36 89.15 525.59 89.33 525.88 89.45 526.12 89.5 526.47 89.56 527.11 89.56 527.46 89.5 527.75 89.39 528.28 89.04 528.57 88.74 528.92 88.04 529.03 87.69 529.15 87.4 530.14 87.4 530.03 87.93 529.91 88.4 529.73 88.8 529.5 89.15 529.27 89.45 528.98 89.74 528.74 89.91 528.45 90.09 528.16 90.2 527.93 90.32 527.63 90.44 527.4 90.5 526.93 90.5 526.64 90.56 526.35 90.5 526 90.5 525.65 90.38 525.36 90.32 525.01 90.15 524.43 89.79 524.19 89.56 523.72 88.98 523.38 88.28 523.14 87.34 523.08 86.88 523.08 85.83 523.14 85.42 523.2 85.01 523.32 84.6 523.43 84.25 523.66 83.9 523.84 83.61 524.31 83.03 524.6 82.79 524.89 82.62 525.24 82.44 525.59 82.33 526 82.21 526.35 82.15 527.17 82.15 527.87 82.27 528.45 82.5 528.92 82.74 529.15 82.97 529.33 83.08 529.5 83.38 529.68 83.55 529.79 83.78 529.85 84.02 529.97 84.25 530.03 84.49 530.09 84.78 529.03 84.78"/><polyline class="cls-9" points="530.78 82.38 537.21 82.38 537.21 83.32 534.58 83.32 534.58 90.32 533.47 90.32 533.47 83.32 530.78 83.32 530.78 82.38"/><polyline class="cls-9" points="539.3 89.39 543.33 89.39 543.33 90.32 538.25 90.32 538.25 82.38 539.3 82.38 539.3 89.39"/><polyline class="cls-9" points="70.5 78.12 74.52 78.12 74.52 79.06 69.44 79.06 69.44 71.06 70.5 71.06 70.5 78.12"/><polyline class="cls-9" points="74.88 71.06 81.35 71.06 81.35 72.05 78.67 72.05 78.67 79.06 77.62 79.06 77.62 72.05 74.88 72.05 74.88 71.06"/><polyline class="cls-9" points="71.96 84.6 71.84 84.37 71.78 84.13 71.66 83.96 71.55 83.73 70.97 83.26 70.61 83.08 70.32 82.97 69.16 82.97 68.92 83.08 68.69 83.14 68.22 83.38 67.87 83.73 67.52 84.19 67.41 84.43 67.29 84.72 67.17 85.07 67.11 85.36 67.11 86.82 67.23 87.46 67.29 87.69 67.41 87.99 67.64 88.45 67.87 88.69 67.99 88.92 68.45 89.15 69.04 89.39 69.39 89.39 69.74 89.45 70.03 89.39 70.32 89.39 70.61 89.27 71.14 88.92 71.49 88.57 71.61 88.4 71.72 88.16 71.96 87.58 72.02 87.23 73.07 87.23 72.95 87.81 72.77 88.22 72.6 88.69 72.42 89.04 72.19 89.33 71.9 89.56 71.61 89.74 71.37 89.97 70.79 90.2 70.56 90.26 70.27 90.32 69.86 90.38 69.22 90.38 68.86 90.32 68.57 90.26 68.22 90.15 67.93 90.03 67.64 89.85 67.35 89.62 66.88 89.15 66.64 88.86 66.41 88.51 66.18 87.69 66.06 87.23 66 86.7 65.94 86.12 66 85.71 66.06 85.3 66.12 84.83 66.24 84.43 66.36 84.08 66.53 83.73 66.76 83.44 66.94 83.14 67.23 82.85 67.52 82.62 68.11 82.27 68.45 82.15 68.86 82.03 69.27 82.03 69.68 81.97 70.03 82.03 70.38 82.03 70.73 82.15 71.02 82.21 71.37 82.33 71.61 82.5 71.84 82.62 72.07 82.79 72.25 82.97 72.42 83.2 72.54 83.38 72.89 84.08 72.95 84.37 72.95 84.6 71.96 84.6"/><polyline class="cls-9" points="73.65 82.21 80.13 82.21 80.13 83.14 77.44 83.14 77.44 90.2 76.33 90.2 76.33 83.14 73.65 83.14 73.65 82.21"/><polyline class="cls-9" points="82.23 89.21 86.25 89.21 86.25 90.2 81.12 90.2 81.12 82.21 82.23 82.21 82.23 89.21"/><line class="cls-3" x1="354.3" y1="79.17" x2="354.3" y2="83.73"/><path class="cls-6" d="M358.74,94l44.94-51.77V11.65h18.91"/><polyline class="cls-9" points="45.93 109.4 46.22 109.4 46.28 109.29 46.51 109.17 46.63 108.94 46.63 108.65 46.51 108.41 46.39 108.29 46.28 108.24 46.22 108.18 46.1 108.12 45.81 108.12 45.46 108.29 45.28 108.65 45.28 108.94 45.4 109.17 45.46 109.23 45.58 109.29 45.7 109.4 45.93 109.4"/><polyline class="cls-9" points="32.91 139.17 33.09 139.17 33.32 139.05 33.38 138.94 33.5 138.88 33.61 138.64 33.61 138.35 33.5 138.12 33.38 138.06 33.21 137.88 32.68 137.88 32.56 138 32.45 138.06 32.39 138.12 32.27 138.35 32.27 138.64 32.33 138.76 32.39 138.88 32.56 139.05 32.8 139.17 32.91 139.17"/><polyline class="cls-9" points="98.74 68.79 98.86 68.79 98.98 68.73 99.33 68.38 99.33 67.85 99.15 67.68 99.09 67.56 98.86 67.44 98.57 67.44 98.34 67.56 98.28 67.68 98.16 67.74 98.04 67.97 98.04 68.26 98.16 68.49 98.28 68.55 98.45 68.73 98.57 68.79 98.74 68.79"/><polyline class="cls-9" points="120.86 52.97 120.98 52.97 121.33 52.79 121.39 52.68 121.5 52.45 121.5 52.21 121.44 52.04 121.39 51.98 121.33 51.86 121.21 51.74 121.1 51.74 120.86 51.63 120.75 51.69 120.57 51.74 120.51 51.74 120.39 51.86 120.34 51.98 120.28 52.04 120.22 52.21 120.22 52.45 120.34 52.68 120.39 52.79 120.51 52.85 120.57 52.91 120.75 52.97 120.86 52.97"/><polyline class="cls-9" points="166.27 52.91 166.38 52.91 166.5 52.85 166.68 52.79 166.73 52.74 166.79 52.62 166.91 52.5 166.91 51.98 166.68 51.74 166.5 51.63 166.03 51.63 165.92 51.74 165.8 51.8 165.74 51.86 165.63 52.09 165.63 52.39 165.68 52.5 165.8 52.74 166.15 52.91 166.27 52.91"/><polyline class="cls-9" points="166.27 43.16 166.5 43.05 166.68 43.05 166.79 42.81 166.91 42.7 166.91 42.23 166.79 42.12 166.73 42 166.68 41.94 166.5 41.88 166.38 41.88 166.27 41.82 166.15 41.88 166.03 41.88 165.8 42 165.63 42.35 165.63 42.58 165.68 42.7 165.8 42.93 165.92 43.05 166.03 43.05 166.27 43.16"/><polyline class="cls-9" points="192.12 52.91 192.24 52.91 192.41 52.85 192.47 52.79 192.59 52.74 192.7 52.62 192.7 52.5 192.76 52.39 192.82 52.21 192.7 51.98 192.7 51.86 192.47 51.74 192.41 51.63 191.89 51.63 191.77 51.74 191.65 51.8 191.59 51.86 191.53 51.98 191.48 52.09 191.48 52.39 191.59 52.62 191.65 52.74 192 52.91 192.12 52.91"/><polyline class="cls-9" points="246.75 68.9 246.86 68.9 247.1 68.79 247.27 68.61 247.39 68.38 247.39 68.09 247.27 67.85 247.1 67.68 246.86 67.56 246.63 67.56 246.39 67.68 246.22 67.85 246.16 67.97 246.1 68.09 246.1 68.38 246.22 68.61 246.39 68.79 246.63 68.9 246.75 68.9"/><polyline class="cls-9" points="262.5 67.74 262.62 67.68 262.74 67.68 262.85 67.62 263.03 67.44 263.14 67.21 263.14 66.98 263.09 66.8 263.03 66.69 262.85 66.51 262.74 66.45 262.62 66.45 262.5 66.39 262.33 66.45 262.21 66.45 262.09 66.51 261.92 66.69 261.86 66.8 261.81 66.98 261.81 67.21 261.86 67.33 261.92 67.44 262.09 67.62 262.21 67.68 262.33 67.68 262.5 67.74"/><polyline class="cls-9" points="255.21 103.98 255.44 103.98 255.56 103.86 255.68 103.8 255.73 103.74 255.85 103.51 255.85 103.22 255.68 102.87 255.56 102.75 255.44 102.75 255.32 102.69 255.09 102.69 254.92 102.75 254.8 102.75 254.68 102.99 254.57 103.1 254.57 103.63 254.92 103.98 255.21 103.98"/><polyline class="cls-9" points="239.28 126.15 239.39 126.15 239.63 126.04 239.74 125.92 239.86 125.86 239.86 125.75 239.98 125.51 239.92 125.34 239.86 125.22 239.86 125.1 239.63 124.99 239.51 124.87 239.04 124.87 238.93 124.99 238.81 125.04 238.75 125.1 238.63 125.34 238.63 125.63 238.75 125.86 238.93 126.04 239.16 126.15 239.28 126.15"/><polyline class="cls-9" points="254.16 139.23 254.27 139.17 254.39 139.17 254.63 139.05 254.8 138.7 254.8 138.47 254.74 138.35 254.63 138.12 254.51 138 254.39 138 254.16 137.88 254.04 137.94 253.87 138 253.81 138 253.69 138.12 253.52 138.47 253.52 138.7 253.69 139.05 253.81 139.11 253.87 139.17 254.04 139.17 254.16 139.23"/><polyline class="cls-9" points="307.91 42.81 308.14 42.81 308.26 42.7 308.38 42.64 308.43 42.58 308.55 42.35 308.55 42.06 308.43 41.82 308.26 41.65 308.02 41.53 307.79 41.53 307.56 41.65 307.38 41.82 307.27 42.06 307.27 42.35 307.38 42.58 307.44 42.64 307.56 42.7 307.68 42.81 307.91 42.81"/><polyline class="cls-9" points="365.34 39.08 365.45 39.08 365.8 38.9 365.92 38.79 365.92 38.67 366.04 38.44 365.98 38.32 365.92 38.15 365.92 38.09 365.68 37.85 365.57 37.85 365.34 37.74 365.1 37.85 364.98 37.85 364.87 37.97 364.81 38.09 364.75 38.15 364.69 38.32 364.69 38.56 364.81 38.79 364.87 38.9 365.22 39.08 365.34 39.08"/><polyline class="cls-9" points="356.29 82.03 356.52 82.03 356.75 81.92 356.81 81.8 356.87 81.69 356.87 81.57 356.93 81.45 356.87 81.28 356.87 81.16 356.75 80.92 356.41 80.75 356.17 80.75 356.06 80.81 355.88 80.86 355.76 80.92 355.64 81.16 355.64 81.28 355.59 81.45 355.64 81.57 355.64 81.69 355.7 81.8 355.76 81.92 355.88 81.97 356.06 82.03 356.29 82.03"/><polyline class="cls-9" points="358.56 94.81 358.68 94.81 358.91 94.7 359.03 94.58 359.15 94.52 359.15 94.41 359.21 94.29 359.27 94.11 359.15 93.88 359.15 93.76 359.03 93.7 358.91 93.59 358.68 93.47 358.45 93.47 358.21 93.59 358.04 93.76 357.98 93.88 357.98 94 357.92 94.11 357.98 94.29 357.98 94.41 358.04 94.52 358.21 94.7 358.45 94.81 358.56 94.81"/><polyline class="cls-9" points="132.88 148.45 133 148.39 133.12 148.39 133.23 148.33 133.47 148.1 133.47 147.98 133.59 147.75 133.47 147.51 133.47 147.4 133.35 147.28 133.12 147.16 133 147.16 132.88 147.11 132.77 147.16 132.65 147.16 132.42 147.28 132.24 147.63 132.24 147.87 132.42 148.22 132.53 148.33 132.65 148.39 132.77 148.39 132.88 148.45"/><polyline class="cls-9" points="269.04 166.89 269.21 166.83 269.33 166.83 269.57 166.72 269.74 166.37 269.74 166.07 269.63 165.84 269.57 165.72 269.33 165.61 269.21 165.61 269.04 165.55 268.92 165.61 268.81 165.61 268.69 165.66 268.63 165.72 268.57 165.84 268.46 165.95 268.46 166.48 268.57 166.6 268.63 166.72 268.69 166.78 268.81 166.83 268.92 166.83 269.04 166.89"/><polyline class="cls-9" points="345.79 159.95 345.9 159.95 346.13 159.83 346.25 159.71 346.37 159.65 346.37 159.54 346.43 159.42 346.43 159.13 346.37 159.01 346.37 158.9 346.25 158.84 346.13 158.72 345.9 158.6 345.67 158.6 345.43 158.72 345.26 158.9 345.2 159.01 345.14 159.13 345.14 159.42 345.26 159.65 345.43 159.83 345.67 159.95 345.79 159.95"/><polyline class="cls-9" points="372.63 119.56 372.81 119.56 373.04 119.44 373.1 119.38 373.16 119.27 373.27 119.15 373.27 118.63 373.16 118.57 373.04 118.33 372.92 118.33 372.81 118.28 372.63 118.22 372.39 118.33 372.28 118.33 372.05 118.57 372.05 118.63 371.99 118.8 371.99 119.03 372.05 119.15 372.05 119.27 372.16 119.38 372.51 119.56 372.63 119.56"/><polyline class="cls-9" points="355.18 138.53 355.3 138.53 355.64 138.35 355.76 138.12 355.76 138 355.82 137.88 355.76 137.77 355.76 137.65 355.64 137.42 355.53 137.36 355.41 137.24 354.94 137.24 354.83 137.36 354.71 137.42 354.6 137.53 354.6 137.65 354.48 137.88 354.6 138.12 354.6 138.24 354.71 138.35 355.06 138.53 355.18 138.53"/><polyline class="cls-9" points="470.73 144.31 470.85 144.31 471.2 144.13 471.32 144.01 471.32 143.9 471.43 143.66 471.32 143.43 471.32 143.31 471.2 143.2 470.85 143.02 470.62 143.02 470.27 143.2 470.21 143.31 470.15 143.43 470.15 143.54 470.09 143.66 470.15 143.78 470.15 143.9 470.27 144.13 470.62 144.31 470.73 144.31"/><line x1="176.42" y1="93.82" x2="186.93" y2="90.5"/></svg>